<?xml version="1.0" encoding="utf-8"?>
<!-- Generator: Adobe Illustrator 16.0.1, SVG Export Plug-In . SVG Version: 6.00 Build 0)  -->
<!DOCTYPE svg PUBLIC "-//W3C//DTD SVG 1.1//EN" "http://www.w3.org/Graphics/SVG/1.1/DTD/svg11.dtd">
<svg version="1.1" id="Layer_1" xmlns="http://www.w3.org/2000/svg" xmlns:xlink="http://www.w3.org/1999/xlink" x="0px" y="0px"
	 width="594.003px" height="365.997px" viewBox="0 0 594.003 365.997" enable-background="new 0 0 594.003 365.997"
	 xml:space="preserve">
<path fill="#FFFFFF" d="M32.824,37.952l0.86-0.15c-0.508-0.542-1.904-1.478-2.054-1.563c-2.169-1.206-5.141-2.204-5.273-2.521
	c-0.387-0.929,0.796-2.608,1.61-3.115c0.669-0.421,1.414-0.664,2.215-0.941c0.133-0.236,0.121-0.773,0-1.113
	c-2.077-0.34-4.904-2.515-0.427-2.798c0.871-0.058,1.2-1.298-0.381-1.95c-2.781-1.148,0.675-2.348-1.812-6.929
	c-0.813-1.495,0.393-2.533,0.393-4.137c0.26-2.463-0.952-2.573-0.479-6.046c0.086-0.646,1.114-2.868,1.973-2.688
	c1.316,0.271,2.862,2.059,3.548,3.133c0.334,0.519,0.225,0.542,0.693,0.894c0.623,0.467,0.427,0.381,1.2,0.681
	c1.148,0.456,3.416,1.344,4.581,1.749l0.236,0.081c0.998,0.346,1.592,0.813,2.637,1.015c3.07,0.6,3.398,4.552,2.648,4.997
	c-9.555,5.671-2.758,4.984-4.737,7.708l-0.046,0.063c-2.019,2.787,1.968,2.164,2.002,2.072c1.771-1.344-0.467-1.396,3.329-2.423
	c2.054-0.554-0.404-1.644,2.049-3.906c0.998-0.917,0.496-1.754,1.367-3.94c0.167-0.416,0.3-0.358,0.312-0.854
	c0.329-1.328-0.825-0.658,0.092-3.86c0.041-0.144-0.888-0.969-0.663-2.828c0.052-0.455,3.277-3.068,0.086-5.164
	C47.848,2.798,47.179,0.704,47.577,0c14.072,3.704,31.958,8.602,54.551,13.46l0.669,0.144c2.85,0.611,5.771,1.218,8.765,1.823
	l0.681,0.139c29.586,5.948,66.546,11.574,112.542,14.568l0.693,0.046c19.841,1.281,41.361,2.071,64.693,2.192h0.762
	c6.185,0.029,12.49,0.012,18.929-0.063l0.041-5.256c1.604,0,2.689,0.179,3.289,0.859c0.703,0.796,1.146,0.461,1.01,3.67
	c-0.053,1.147,0.824,0.721,0.992,2.763c0.074,0.917,4.852,2.458,6.127,2.458c2.182,0,1.996,3.237,5.262,1.488
	c0.508-0.277,2.406-0.877,3.047-0.877c3.611,0,3.553,0.935,5.371,1.379c2.613,0.646,0.334,4.615,4.373,2.354
	c2.701-1.512,2.551,2.51,6,3.093c5.24,0.882,4.391-4.512,7.869-1.039c0.047,0.041,0.115,0.046,0.174,0.126
	c1.314,0.075,5.672-0.744,6.52-0.45c0.381,1.835,2.943,1.062,3.773,1.062c0.322,2.273-8.367,4.148-9.998,5.844
	c-0.461,0.479-4.092,4.409-4.195,4.443c-0.018,0.075-3.668,3.947-5.141,5.568c-0.646,0.716-2.787,2.51-2.654,3.664l0.438,0.641
	c1.957,1.223,4.098-0.669,5.447-1.459c1.588-0.929,5.66-4.731,6.531-1.818l0.041,0.122c0.703,2.36-2.85,4.027,0.301,3.548
	c1.621-0.249,2.445,0.433,3.449,0.323l0.703-0.133c1.461-0.617,4.732-3.721,6.982-4.073c2.412-0.38,2.896,0.15,5.123-2.671
	c1.484-1.875,3.859-2.654,5.123-4.587c1.293-1.984,4.045-4.916,6.809-3.71c1.211,0.525,0.18,2.141-0.023,2.176
	c-0.219,0.375-1.904,1.079-2.398,1.269c-0.844,0.312-1.109,0.854-1.547,1.541c-1.086,1.708-3.359,5.262-1.623,5.556
	c1.172,0.202,1.26-1.99,3.514-2.146c6.953-0.479,6.047,7.852,10.512,5.042c1.588-0.554,1.773,0.559,3.014,0.912
	c1.072,0.3,3.818-2.458,4.193-3.185c0.348-0.438,0.203-0.26,0.439-0.537c0.957-2.042,9.127-0.865,9.623-2.348
	c3.936-1.194,2.621-1.944,3.652,3.006c6.336,1.304,7.086-4.737,8.348,1.789c0.277,1.413,5.979,5.533-2.221,4.528
	c-5.422-0.663,0.271,3.26-4.533,2.066c-0.15-0.041-5.828-5.573-7.275-1.5c-0.135,1.067-0.74,1.102-1.564,1.131
	c-9.602,0.329-2.926,5.435-8.574,5.435c0-1.465,1.609-2.158,1.072-2.359c-0.506-0.191-1.436-0.266-1.879,0.115
	c-1.236,1.05-0.156,3.191-1.975-0.063c-0.611-1.097-3.766,7.656-5.059,11.245l-0.307,0.848c-0.139,0.375-0.225,0.606-0.242,0.635
	c-0.109,0.167-0.463,0.547-0.791,0.831c-0.275,0.237-0.842,0.444-0.986,0.791c-0.277,0.651-0.762,1.327-0.998,2.187
	c-1.01,3.687,0.629,4.24,1.668,1.304c0.186-0.502,0.795-1.864,1.143-2.21c1.033-1.05,2.256,0.866,2.637-3.063
	c0.098-1.01,1.934-3.906,3.074-3.739c0.596,1.316-2.1,4.997-2.371,8.707c-0.076,1.015-1.5,1.188-1.234,7.368
	c0.021,0.6-1.148,0.259-1.229,4.183c-0.041,1.847-0.445,4.708-0.525,6.023c-0.053,0.895,0.207,0.213-0.127,1.304
	c-0.432,1.396-1.107,4.627-0.197,4.957c1.898,4.938,1.455,6.745,1.416,8.343l0.01,0.692c0.035,0.41,0.121,0.836,0.307,1.327
	c0.143,0.381,0.57,0.842,0.662,1.107c2.637,0.999-0.004,6.29,4.068,7.575l0.709,0.167c0.404,0.069,0.854,0.11,1.361,0.11
	c1.201,0.005,1.496-0.15,2.471-0.704c0.225-0.126,0.479-0.276,0.732-0.444l1.309-0.819l-0.121,0.012
	c0.359-0.249,0.676-0.479,0.9-0.629c3.094-2.112,4.139-14.528,4.104-17.286c-0.012-1.137-1.674-4.143-2.613-5.412
	c-1.104-1.483-3.059-5.268-1.617-6.081c0.225-4.483-2.658-2.412,0.457-6.629c3.438-4.65-1.65-5.931,2.324-9.226
	c0.121-0.104,0.455-0.352,0.531-0.462c1.096-1.563,3.139-5.083,4.021-2.111c0.127,0.433,0.059,0.854,0.271,1.632
	c2.105,1.5,0.479-4.148,1.984-6.756c0.566-0.687,1.352-1.304,2.176-1.587c0,0-1.83-6.364,3.98-4.881
	c5.117,1.31,3.947,1.91,6.162,2.96l0.207,0.098c3.387,0.248,8.232,0.231,6.479,4.945c-0.098,1.067,1.604,3.168,1.604,9.19
	c0,0.618-0.898,3.583-2.139,5.089c-0.941,1.137-0.924,0.265-1.674,1.852c-0.854,1.806-2.037,5.337,2.516,4.408
	c4.027-0.819,0.08-4.062,4.904-6.237c0.561-0.248,1.033-0.329,1.564-0.358c1.811-0.086,3.172,1.489,4.068,3.058
	c1.395,2.464,3.875,12.642,2.957,15.232c-0.012,0.253-2.428,1.638-2.52,1.667c-0.975,2.914-0.561,3.381-0.705,3.704
	c-2.018,1.327-3.006,4.748-3.762,7.258c-0.115,0.035-1.43,1.454-0.162,2.464l0.9,0.531l0.105-0.023
	c0.449,0.156,1.02,0.277,1.742,0.363c0.49,0.058,3.623,1.633,3.682,1.697c5.197,1.563,5.4-0.19,10.719-1.488
	c0.525-0.133,1.016,0.017,1.293-0.317c0.127,0.011,1.84-1.674,3.131-3.035c0.797-0.836,2.338-2.822,3.232-3.329
	c1.586-0.906,4.438-1.979,5.141-2.089c0.277-0.138,0.623-0.328,0.877-0.513l0.623-0.479c0.23-0.133,0.531-0.317,0.553-0.381
	c0.164-0.012,2.689-1.616,3.174-2.008c1.287-1.039,1.916-2.308,2.955-3.231l0.635-0.484c0.305-0.173,0.541-0.433,0.791-0.704
	c0.363-0.398,0.877-0.952,1.037-1.194c0.393-0.583,0.838-1.321,1.264-1.736c0.348-0.334,1.166-0.681,1.598-0.9
	c4.236-2.158,0.365-6.618,0.346-6.779c-0.328-0.028-0.084-0.294-0.455-0.387c-0.754-0.45-0.715-2.503-0.49-3.3
	c-0.139-1.99,11.412-3.225,13.467-3.225c0.762-0.375,2.525,1.12,4.246-0.623c0.572-0.583,1.928,0.79,4.252-1.154
	c0.543-0.456,1.021-1.857,1.494-2.452c0.889-1.113,3.502-0.963,4.414-3.75c0.484-1.478-1.645-1.558-0.842-4.154
	c0.34-0.3,0.168-0.831,0.057-1.172c-2.002-1.153-2.07-0.15-2.971-1.453c0.012-0.012,0.289-0.37,0.41-0.525
	c0.18-0.236,0.311-0.329,0.543-0.542c0.783-0.715,2.584-2.319,2.85-2.654c0.916-1.177,1.84-2.901,2.492-4.211
	c0.576-1.148,0.951-2.256,1.799-3.214c1.334-1.5,3.814-3.588,4.934-3.992c0.605-0.225,0.75-0.254,1.426-0.393
	c1.58-0.323,4.604-0.935,4.875-0.958c0.293-0.018,1.293-0.369,1.633-0.468c1.332-0.381,4.01-1.154,6.693-1.938l0.674-0.196
	c3.49-1.027,6.803-2.008,6.947-2.088c0.432-0.358,9.641-2.464,10.328-2.412l0.016-0.059l0.008,0.006l0.375-0.79l-0.059-0.116
	c1.34-3.75,1.811-4.165,2.123-4.125l0.646-0.243l0.023-0.04c1.383-2.562,0.393,0.588,2.336-2.446
	c2.135-3.33,0.381-3.532,1.355-4.478c0.201-0.196,0.375-0.462,0.699-0.756c2.572-2.06-1.42-5.649,1.025-11.591
	c0.324-3.94-1.217-3.923,0.988-7.662c1.262-2.14,2.348-12.278,5.15-6.993c0.209,0.992,1.248,1.985,2.477,1.708
	c0.859-0.196,0.623-0.45,0.992-1.085c0.623-1.056,2.211-2.325,3.23-2.348c1.768-0.04,4.16,0.883,5.436,2.192
	c0.715,0.733,1.172,2.129,1.488,3.104c0.426,1.287,1.258,3.6,1.771,5.008c0.221,0.605,0.484,1.137,0.691,1.685
	c0.363,0.981,0.555,2.02,0.781,3.035c0.432,1.904,1.758,6.179,2.549,6.318c0.219,0.421,2.713-0.179,2.787,0.282
	c1.166,0.595,0.518,3.162,2.191,4.241c0.611,0.398,1.133,0.341,1.754,0.606c0.283,0.121,0.641,0.276,0.855,0.334
	c2.498,0.687-0.422,1.362,2.584,3.94c1.564,1.338-2.861,2.302-2.867,2.325c-0.057,0.023-0.174,4.252-3.727,3.237
	c-0.803-0.225-1.092-0.329-1.039,0.675c0.035,0.658,0.248,1.241,0.186,1.425c-2.246,0.779-2.869-0.9-3.059,1.073
	c-0.012,0.098-0.059,0.185-0.156,0.243c-0.127,0.028-1.529,0.536-1.541,0.571c-1.016,0.237,0.611,2.862-3.6,0.577
	c-0.121-0.069-0.283-0.04-0.428-0.04c0.139,1.662-0.709,4.627-0.916,6.133c-0.082,0.611,0.033,0.525-0.375,1.05
	c-1.611,2.013-2.143-0.179-2.77,2.918c-0.006,0.029-0.174,0.271-0.348,0.473c-0.426,0.491-2.059,1.356-2.191,1.593
	c-0.197,0.121-1.098,0.179-1.881,0.306c-0.67,0.104-0.762,0.542-1.027,1.218c-0.195,0.49-0.432,1.263-0.699,2.556
	c-0.189,0.935-2.07,5.793-2.393,7.835l0.422,1.137c0.201,0.248,0.426,0.617,0.49,0.668c0,2.152-0.924,1.829-0.75,2.418l0.396,0.727
	l0,0c0.23,0.346,0.57,0.808,1.057,1.454c0.068,0.104,0.012,0.122,0.145,0.202c0,1.275-2.955,4.004,0,5.58
	c0.195,0.104,1.707,1.142,1.789,1.297c1.176,0.225,1.557,2.868,4.91,4.818c0.068,0.04,0.287,0.225,0.344,0.369
	c0.035,1.379-0.969,2.822-2.117,2.573c-2.877-0.617-3.271,0.745-4.125,1.691l-0.543,0.467c-0.328,0.208-0.742,0.341-1.314,0.341
	c-0.018-0.023-1.898-5.487-2.389-3c-0.473,2.371,0.438,1.886,0.283,4.252c-0.035,0.548-0.23,0.888-0.457,1.2
	c-0.709,1.016-0.564,0.709-1.898,1.073l-0.178,0.046l-0.67,0.179v0.006c-0.922,0.254-1.92,0.531-2.607,0.715
	c-0.951,0.254-0.912,0.277-1.811,0.745c-2.217,1.142-7.535,3.796-8.465,4.327c-0.086,0.046-0.133,0.052-0.23,0.127
	c-0.41,0.19-1.328,0.917-1.691,1.188c-0.553,0.404-1.264,0.854-1.752,1.275l-0.117,0.104l-0.611,0.773
	c-0.104,0.202-0.203,0.433-0.334,0.721c-0.197,0.433-0.428,0.877-0.773,1.2l-0.381,0.369l-0.635,0.6
	c-0.219,0.202-0.439,0.404-0.658,0.594c-2.082,1.788-3.859,5.192-0.133,7.166c2.359,3.588,1.027,8.597-0.098,12.387
	c-0.59,1.973,0.18,1.275-0.346,2.607c-0.531,1.362-1.795,3.364-2.008,4.824c-0.023,0.15-0.381,0.842-0.693,1.413
	c-0.611,1.143-0.709,2.47-2.41,1.004c-0.283-0.243,0.016-1.442-0.383-1.812c-0.479-0.456-1.014-0.836-1.465-0.993
	c-3.375-2.209-3.652-1.505-4.299-2.423c-0.08-0.646-0.703-0.975-0.818-1.512c-0.283-1.338,0.006-2.585,0.854-3.029
	c0.422-0.219,0.738-0.403,0.998-0.583l-0.393-0.571c-0.242,0.161-0.529,0.34-0.928,0.542c-3.111,1.627-1.795,6.641,1.586,8.423
	c0.201,1.298,2.568,4.403,4.35,5.06c-0.166,4.305,1.658,1.396,0.912,7.408l-0.039,0.357l-0.1,0.733
	c-0.559,4.056-0.662,1.419-1.527,4.021c-0.035,0.11-0.248,1.835-0.348,2.868c-0.172,1.73,0.277,3.617-1.609,4.506
	c-0.27,0.127-0.266,0.433-0.283,0.675c-0.092,1.241-0.525,5.481-2.094,3.243c-0.924-1.315,0.053-5.66,0.912-6.831
	c0.854-1.166,1.09-3.156-0.15-4.402c-0.844-2.077-1.668-0.894-2.77-3.767c-0.225-0.583-0.162-0.416-0.83-0.375
	c-3.797,0.231-2.984-0.808-3.607-4.322c-0.115-0.64-0.305-0.565-0.391-0.975c-0.266-1.269,0.5-4.927-0.941-5.395
	c-0.721-0.23-0.797-3.254,1.453-4.033c0,0,1.217-3.664-0.939-2.862c-0.352,0.133-0.289,0.225-0.312,0.554
	c-0.039,0.588-0.113,1.685-0.113,1.783c-1.26-0.098-2.979,2.792-3.932,3.664c-0.916,0.854,1.328,1.374,1.166,5.469
	c-0.062,1.587,0.617-1.223,0.15,2.608c-0.021,0.156,0.121,0.687,0.174,0.836c0.316,0.063-0.018,1.893,0.969,2.094
	c1.16,3.341-1.926-0.346,1.066,5.384c0.584,1.107,5.869,2.256,3.602,3.018c-0.047,0.167-0.053,0.052-0.098,0.219
	c-0.301,0.098-0.121,1.586-0.26,2.117c-0.734,0.127-0.561,0.196-1.189,0.219l-0.408,0.618c1.037,1.811,6.414,2.14,1.441,3.692
	c-0.877,0.271-1.09,0.508-0.594,1.01c0.42,0.41,1.424,1.01,2.156,1.414c0.41,0.225,0.734,0.387,0.82,0.415
	c0,3.722-2.279,1.714-4.674,0.428c0.053,0.663,0.316,6.525,6.439,2.434c0.744-0.496,2.312-0.721,2.688,0.329
	c1.83,1.546,0.363,3.26,0.682,4.933l0.156,0.675l0.074-0.017c0.121,0.229,0.295,0.461,0.531,0.691
	c0.416,0.405,0.963,0.682,1.32,1.021c0.584,0.542,0.611,1.466,0.611,2.244c-4.879-0.415-1.938,0.421-3.807,1.616
	c-1.518,0.975-3.779,2.811-4.996,1.339c-0.699-0.843-1.078-3.728-0.623,0.443c0.16,1.466,0.627,2.892,1.961,1.979
	c1.131-1.326,3.086-0.456,4.871-1.788c0.396-0.3,0.766-0.394,1.268-0.394c0.105,0.611,0.473,3.75,0.484,3.78
	c2.002,0.663-0.414-3.169,1.934-3.18c0.854-0.312,3.428,1.984,1.146,3.981c-2.365,3.017-0.482,2.238-1.596,3.94
	c-0.773,1.183-3.336,0.975-4.172-0.186c-0.428-0.588-1.275-1.212-1.91-1.453c-0.584-0.226-1.078-0.023-0.959,0.628
	c0.123,0.688,0.301,1.83-3.119,1.582c-0.832-0.059-1.756-0.288-0.418,0.334c2.811,1.321,5.033,0.964,5.246,1.143
	c0.271,0.226,0.277,0.323,0.316,0.664c0.404,3.467-1.789,4.725-5.053,3.56c-0.135-0.047-0.525-0.019-0.693,0.023
	c0.1,2.503,3.33,2.434,5.521,1.396c0.035-0.317,1.242-1.183,1.246-1.194c0.277-0.04,1.771-0.536,1.951,0.012
	c0.166,0.052,0.24,0.104,0.307,0.317c-0.123,3.687-2.096,1.2-4.824,4.736c-1.57,2.043-4.477-1.58-5.111,2.684
	c0,0.005-0.227,0.328-0.398,0.328c-1.137,0.266-3.48,2.471-4.352,4.478c-0.16,0.369-0.461,1.35-0.6,1.604
	c-0.34,0.629-0.957,0.23-0.801,4.177c0.004,0.134-0.012,0.186-0.156,0.271c-0.572,0.357-3.393,1.24-6.23,2.342l-0.816,0.323
	c-0.225,0.092-0.449,0.186-0.674,0.277c-0.018,0.005-0.605,0.514-1.055,0.951c-0.428,0.41-0.664,0.769-0.947,1.275
	c-1.043,1.87-0.957,3.738-2.326,4.408c-0.975,0.474-1.539,0.104-1.35,1.627c0.236,1.91,1.83,1.777,0.029,4.125
	c-0.385,0.509-0.23,0.341-0.859,0.624c-2.463,1.118-1.76,2.21-2.002,2.359c-0.029,0.179-0.611,0.657-0.705,0.692
	c-0.178,0.023-0.529,0.387-0.592,0.595c-0.51,1.695-3.619-0.023-3.203,1.361c0.033,0.104,0.08,0.226,0.16,0.369
	c0.711,1.38-0.455,3.168-1.92,3.595c-2.463,0.715-7.021-0.012-3.445,2.243c1.559,0.981-0.139,3.665-1.887,1.073
	c-0.777-1.153-0.812-0.229-0.502,0.652c0.658,1.853,0.803,0.819,0.352,2.557c-0.217,0.075-1.365-0.162-1.436,0.121
	c-0.012,1.419-0.064,1.639-0.127,1.887l-0.166,0.704c-0.885,3.507-1.283-1.212-1.283,3.656c0,0.186-1.459,1.438-1.535,1.467
	c0,1.229,0.15,3.15,0.15,4.754c-2.566-0.219-1.447,1.807-1.441,1.828c1.852,0.434-0.812,1.783-0.467,5.39
	c0.293,3.081,0.883,1.962,1.119,2.718c0.023,0.006,0.051,0.052,0.092,0.138l0.318,0.79c0.795,2.217,2.451,7.709,3.184,8.712
	c0.023,0.035,1.621,3.157,2.545,4.964c0.508,0.997,0.439,1.326,1.061,2.203c1.373,1.915,4.727,6.561,5.25,6.732
	c0.342,1.125,2.506,2.031,2.506,3.642c-0.018,0-1.881,0.432-2.107,1.153c-0.119,0.394,0.023,0.715,0.041,0.9
	c0.115,0.052,0.434,0.444,0.461,0.618c0.383,0.207,0.156,0.333,0.486,0.449c0.039,0.098,0.121,0.179,0.219,0.219
	c0.053,0.134,0.053,0.19,0.195,0.202c0.053,0.087,0.035,0.058,0.15,0.069c0.018,0.04,2.418,3.041,2.545,3.134
	c0.006,0.179,0.26,0.432,0.387,0.512c0.016,0.18,0.756,1.011,0.842,1.051c0.053,0.335,0.502,0.56,0.549,1.039
	c1.822,0.842,2.867,8.244,6.012,11.188c0.139,0.127,0.074,0.04,0.098,0.149c3.012,1.056,3.951,13.402,3.248,16.311
	c0.381,0.688-1.068,3.208-1.137,3.23c-0.537,1.605,0.219,4.812,0.41,7.172c-0.145-0.012-2.592,0-2.994,0.04
	c0.104,2.482-4.697,3.284-8.078-1.5c-3.381-4.782-0.594-5.469-7.887-6.363c-2.158-0.265-2.209-4.408-2.498-4.54
	c-1.893-3.462-1.281,0.795-1.725-4.443c-0.623-0.219-2.268-0.092-2.258-0.622c-1.615-7.674-1.182-1.167-4.793-3.14
	c-0.174-0.099-4.01-5.359-4.143-5.607c-1.727-1.195,2.111-5.604,2.135-5.604c0-1.679-1.611-2.764-3.227-2.764
	c0.012,0.146,2.205,5.325-1.764,3.751c-0.111-0.046-0.139-0.121-0.15-0.219c-1.004-0.168-0.768-3.035-0.768-3.837
	c0.652-3.521,1.344-5.729,0.951-8.943c-0.051-0.427-0.34-3.617-0.363-3.617c-0.531-2.285-3.986-3.122-5.545-3.692
	c-0.23-0.088-1.707-1.558-2.486-1.801c-0.145-0.438-2.105-1.212-2.232-1.563c-0.865-1.362,1.096-2.521-2.613-3.139
	c-1.742-0.288-0.053-2.309-4.34-3.144c-10.957-2.135-3.035,1.95-8.309,2.688c-1.701,1.125-2.744,1.8-4.816,2.21
	c-2.637,0.53-1.102,1.932-4.314,1.285c-0.936-0.189-1.109-0.017-1.467-0.813c-0.248-0.547-0.559-1.401-0.416-2.007
	c-2.717-2.603-1.559-0.26-3.334-3.271c-0.75-1.275-2.955,0.6-7.473-2.665c-2.977-2.152-2.48,0.963-6.248,0.727
	c-0.623-0.11-2.326-0.214-2.793-0.497c-0.051-0.663-1.066-0.616-1.547-0.581c-0.611,0.045-0.754,0.663-1.262,0.888
	c-0.773,1.62-1.119,1.528-2.078,1.522l-0.697,0.023c-0.271,0.023-0.582,0.069-0.941,0.149c-0.039,0.283-0.398,0.652-0.697,0.757
	c-0.992,0.346-0.791,0.485-3.15,0.86c-0.219-0.231-1.408-1.622-1.518-1.634c-0.006-0.012-0.918-5.879-2.371-3.427
	c-0.029,0.045,0.197,3.646-0.865,3.813c-0.121,0.347-1.027,0.525-2.312,0.657l-0.693,0.064c-2.584,0.219-6.197,0.352-8.211,1.113
	c-0.455,0.173-3.668,1.327-3.676,1.327c-0.957,0.461-0.426,0.773-0.996,1.598c-0.238-0.018-0.52-0.018-0.82,0.012l-0.693,0.099
	c-0.367,0.075-0.732,0.184-1.016,0.322c-0.039,0.029-0.236,0.317-0.467,0.524c-0.438,0.387-0.352,0.007-0.449,0.762
	c-0.26,2.055,0.166,1.259,0.531,3.347c0.207-0.005,5.988-5.123,4.916-0.75c-0.375,1.535,0.352,2.146-0.121,2.176
	c-1.523,0.103-2.137-0.508-2.406-0.41c-0.121,0.578-0.064,1.933-0.105,2.043c-0.166,0.04-0.686,0.167-0.83,0.167
	c0,0.628,0.127,1.668,0.791,1.887c0.254,0.745,0.623,0.738,0.709,0.981c0.168,0.052,0.059,0.052,0.254,0.139
	c0.293,0.3,0.859,0.363,1.201,0.524c0.6,0.289,7.857,1.834,4.516,3.905c-1.557,0.382-2.605,0.017-2.635,0.023
	c-0.797-0.548-5.961-3.202-6.059-3.363c-0.012-0.059-2.619-3.226-4.305-2.793c0,3.317,1.322-0.923,0.693,5.257
	c-0.244,2.342-3.77-1.732-5.908-0.629c0,0-0.676,2.094-1.004,2.21c-0.33,0.952-3.555-0.773-4.449-0.773
	c-0.023-0.007-4.869-0.058-3.537-2.13c1.287-1.332-0.715-2.85-2.631-2.705c-0.518-0.295-1.016-0.78-1.604-1.102
	c-0.283-2.471-1.996-0.186-3.721-2.061c-1.447-0.524-3.342-0.178-3.342,1.726c0,0.201,0.064,1.003-0.166,1.055
	c-0.631,2.072-6.85,0.757-8.406,0.094c-0.127-0.052-0.203-0.035-0.336-0.035c-0.035-0.127-3.795-1.69-4.268-1.852
	c-0.117-0.445-0.832-2.979-0.844-3.035c-0.076-0.006-1.465-0.455-1.533-0.15c-0.793,0.122,0.609,2.799,0.609,3.375
	c-1.828-0.145-3.842,0.289-5.729,0.825l-0.779,0.23c-0.387,0.116-0.762,0.236-1.131,0.353c-1.379,0.433-1.344,0.547-2.543,1.072
	c-1.859,0.814-5.678,1.95-7.531,1.178c-0.045-0.069,1.461-4.951-1.031-2.7c-1.691,1.529,1.471,1.298-2.689,1.137
	c-1.684-0.069,0.762,1.65,1.223,3.918c0.129,0.616,1.438,0.709,2.066,0.928c0.266,0.773-0.041,1.299-0.82,1.46
	c-0.248,0.727-0.754,0.554-0.898,0.936c-1.328,0.403-2.146,0.305-2.33,0.438c-0.475,0.178,0.201,1.887-2.24,3.369
	c-2.775,1.695-8.867,6.018-11.729,4.107c-0.018-0.057-3.371-1.568-3.617-1.568c-0.111,0.161-0.043,0.127-0.215,0.161
	c-0.582,1.679,0.877,1.829-1.32,1.829c0,1.632,1.395,2.054,2.844,2.273c0.023,0.052,0.381,0.946,0.416,0.957
	c0.195,0.484-0.838,0.56-1.184,0.762c-0.15,0.138-1.426,1.125-1.574,1.113c-0.123,0.353-3.728-4.478-3.306-1.072
	c0.18,1.471,0.848-0.225,0.848,3.144c-1.674,0-2.303-1.448-4.754-0.565c-0.375,0.802,3.82,6.254-2.672,4.011
	c-0.674-0.237-1.182-0.583-2.014-0.295c-0.305,1.091,0.93,1.956,1.99,2.446c0.18,0.08,0.873,0.525,1.334,0.82
	c0.529,0.333,0.518,0.229,0.34,0.957c-0.508,2.146-3.074,5.545-5.861,2.273c-1.039-1.217-2.498,3.189,3.213,3.473
	c0.145,0.006,0.15,0.04,0.209,0.122c0.322,1.304-1.027,1.332-1.271,2.411c-0.264,1.171-0.471,2.348-0.137,3.831
	c-0.064,1.108,2.129-0.134,1.562,4.42c0.191,2.544,1.258,0.899,1.992,6.877c0.012,0.104,0.057,0.208,0.16,0.23
	c0.543,0.571-1.783,1.968-3.26,0.646c-5.604-5.037-9.059-1.351-10.361-3.462c-0.074-0.122-0.561-0.98-0.576-0.986
	c-0.418-1.379-2.943,0.709-5.039-2.014c-1.604-2.101-2.105,1.062-4.701-2.452c-0.294-0.394-1.13-3.651-1.257-4.224
	c-0.104-0.179-1.155-2.233-1.155-2.255c-0.201-0.059-1.182-1.622-1.229-1.634c0.007-0.126-0.928-6.018-1.066-6.981
	c-0.082-0.589-1.5-1.528-1.697-1.719c-0.415-0.104-0.876-0.531-1.228-0.946c-1.074-1.281-0.896-1.777-1.61-2.862
	c-0.093-0.276-0.52-0.796-0.877-1.159c-0.658-0.664-1.286-0.773-1.408-1.835c-0.087-0.772-0.635-0.94-1.275-1.36
	c-0.438-0.29-1.01-0.711-1.045-0.855c-0.651-2.48-0.074-2.37-1.199-4.465c-0.226-0.422-0.294-0.438-0.589-0.785
	c-0.403-0.49-0.635-0.658-0.882-1.212c-0.375-0.813-0.964-1.517-1.339-2.405c-0.306-0.745-0.819-2.142-1.097-2.932
	c-0.196-0.564-0.363-0.762-0.732-1.252c-0.335-0.265-1.021-1.523-1.438-2.013c-0.143-0.169-0.536-0.49-0.6-0.624
	c-0.15-0.3-4.955-4.229-5.065-4.252c-0.087-0.114-0.531-0.611-0.623-0.618c-0.012-0.021-0.387-0.438-0.687-0.755
	c-0.266-0.283-0.432-0.525-0.813-0.6c-0.704-0.134-2.256-0.063-3.317-0.209c-1.131-0.161-3.576-0.288-4.414-0.604
	c-0.381-1.148-2.48-0.462-2.614-0.162c-0.461,1.01-2.457,0.155-4.863,1.795c-0.408,0.75-1.707,3.802-2.394,5.573
	c-0.663,1.695-1.68,2.209-2.36,2.861c-1.979,1.887-3.422,0.439-4.338-0.346c-0.438-0.37-1.594-1.218-2.072-1.553
	c-0.935-0.652-2.389-1.655-2.526-1.695c-1.016-0.03-2.44-0.849-3.485-1.83c-1.378-1.292-0.548-1.344-2.372-2.129
	c-5.36-2.313-3.767-9.236-5.349-13.922c-0.612-1.812-2.503-3.929-2.515-4.073c-2.192-1.362-7.224-6.751-7.339-6.802l-0.098-0.122
	c-0.317-0.807-3.19-3.017-3.375-3.34c-1.003-1.761-1.523-0.167-3.317-3.854c-0.422-0.865-1.362-2.141-2.332-2.313
	c-0.099-0.023-0.202-0.042-0.305-0.065l-0.687-0.155c-0.571-0.126-1.131-0.253-1.495-0.253c-2.112,0.68-15.209-2.707-17.903-1.783
	l-0.843,6.236l-8.978-1.142l-0.687-0.093l-24.647-3.139l-42.413-23.989l1.067-2.187l0.375-0.773l-0.006-0.035l-28.605-2.764
	c-1.789-3.935,0.409-7.315-0.791-11.146c-0.213-0.179-3.144-3.9-4.356-5.458c-1.477-1.887-2.515-2.556-4.968-3.595
	c-0.288-0.121-1.194-4.038-2.071-5.418c-5.049-1.714-2.1-0.559-5.504-2.318c-0.179-0.093-0.698-0.277-0.75-0.445
	c-0.756-1.125-2.037-2.504-2.463-3.912c-1.028-0.385-0.745-0.385-4.2-1.644l-0.116-0.04c-3.825-1.392-0.75-1.68-5.447-2.378
	c-0.98-0.144-1.5-0.34-1.794-0.53c-0.986-0.635-1.12-2.36-1.062-3.398c0.086-1.587,0.605-3.236,1.234-4.206
	c0.018-0.029,0.353-0.859,0.353-0.952c-0.705-1.24,0.836-0.57-1.916-2.498c-0.259-0.179-0.109-1.096-0.116-1.414
	c-0.034-3.547-2.048-2.452-2.539-5.21c-0.098-0.542-0.912-0.691-1.344-3.415c-0.248-1.599-1.257-0.75-1.5-4.171
	c-0.022-0.363-0.883-1.546-0.883-1.546c0.294-0.762-0.497-1.703-0.917-2.256c-0.369-0.49-0.888-0.975-1.079-1.535
	c-0.577-1.748,1.772-3.254,2.914-4.021c0.808-0.537,0.808-1.789,0.704-2.557c-0.19-1.333-0.536-1.54-1.944-1.852
	c-1.938-0.421-0.992,0.126-1.488-1.27C9.67,167.006,7.178,166.62,8.667,164c0.011-0.023-0.745-6.975,0.865-4.823
	c1.368,1.829,0.063,0.11,2.181,2.925c0.566,0.762,0.871,0.969,1.76,0.969c0-4.131-4.817-9.768-0.225-8.833
	c1.287,0.265,2.106,0.745,3.277,0.958c3.525,0.635-3.023-1.974-3.583-2.579c-1.414-1.518-2.614-0.872-3.018,1.505l-0.012,0.075
	c-0.006,0.012-0.203,1.478-0.266,1.749c-0.3,0.069-4.05-2.839-3.595-4.627c0.145-0.566,0.381-1.137,0.381-1.16
	c0.023-0.727-0.069-1.269-0.242-1.852c-0.283-0.952-0.641-1.338-1.154-2.199c-0.514-0.848-1.027-1.76-1.494-2.637
	c-0.67-1.257-1.622-3.121-1.737-3.415c-0.276-0.704-0.276-1.933-0.26-3c0.018-1.039,0.254-1.766,0.266-2.764
	c0.018-2.106-0.329-5.493,0.883-7.039c3.34-4.257-6.318-8.256-1.131-15.583c0.219-0.312,2.406-2.902,2.607-2.971
	c0.606-0.588,0.987-1.725,1.218-2.833c0.45-2.152,0.242-1.287,1.033-2.994c0.288-0.618,0.485-1.373,0.479-1.794
	c-0.018-1.771-0.185-5.232,0.132-6.369c0.035-0.116,0.063-0.237,0.093-0.363l0.098-0.687c0.086-1.039-0.064-2.164-0.456-2.896
	c-0.185-0.34-0.41-0.594-0.438-1.419c-0.127-3.11,0.328-1.471,1.107-3.438c2.643-6.687-2.164-2.7,3.3-9.491
	c0.276-0.352,0.866-1.021,1.229-1.269c0.617-0.433,0.79-0.381,1.033-1.287c0.156-0.554,0.334-1.315,0.473-1.904
	c0.214-0.935,0.058-0.756,0.687-1.454c0.3-0.329,0.502-0.485,0.796-0.866c3.699-4.806,0.935-5.717,4.985-12.11
	c2.544-4.015,0.507-5.169,1.887-7.084c0.068-1.166,2.25-3.572,2.659-4.79c0.618-0.208-0.23-4.742,1.996-8.504
	c0.157-0.266,0.687-0.75,1.01-0.877c1.782-0.705,3.236,0.94,5.331,1.69V37.952z M540.542,123.204
	c0.076-1.419,0.578-2.377,1.611-3.029c1.037-0.652,1.078-1.535,2.076-1.806c0.992-0.271,2.188-0.882,3.721-1.534
	c1.535-0.652,3.605-1.189,4.877-1.807c1.262-0.611,1.955-1.378,2.375-1.65c0.422-0.265-0.271,0.768,0.693,0.808
	c0.957,0.034,2.648-0.848,3.797-1.345c1.152-0.502,1.344,0.041,0.426,0.537c-0.924,0.502-5.566,3.762-6.951,4.645
	c-1.379,0.882-5.604,3.381-6.445,3.381s-0.883-0.156-1.691,0.536c-0.801,0.687-1.344,1.685-2.531,1.766
	C541.309,123.781,540.733,124.012,540.542,123.204z"/>
</svg>
