<?xml version="1.0" encoding="utf-8"?>
<!-- Generator: Adobe Illustrator 16.0.1, SVG Export Plug-In . SVG Version: 6.00 Build 0)  -->
<!DOCTYPE svg PUBLIC "-//W3C//DTD SVG 1.1//EN" "http://www.w3.org/Graphics/SVG/1.1/DTD/svg11.dtd">
<svg version="1.1" id="Layer_1" xmlns="http://www.w3.org/2000/svg" xmlns:xlink="http://www.w3.org/1999/xlink" x="0px" y="0px"
	 width="42.191px" height="34.214px" viewBox="0 0 42.191 34.214" enable-background="new 0 0 42.191 34.214" xml:space="preserve">
<path fill="#FFFFFF" d="M42.191,8.546C42.191,3.826,37.694,0,32.145,0h-22.1C4.497,0,0,3.826,0,8.546v7.692
	c0,4.72,4.497,8.546,10.045,8.546h7.704l9.4,9.43l-0.031-9.43h5.027c5.549,0,10.046-3.826,10.046-8.546V8.546 M38.174,16.238
	c0,2.832-2.7,5.128-6.029,5.128h-22.1c-3.328,0-6.027-2.296-6.027-5.128V8.546c0-2.832,2.699-5.127,6.027-5.127h22.1
	c3.329,0,6.029,2.296,6.029,5.127V16.238z"/>
<g>
	<path fill="#FFFFFF" d="M16.391,14.301c-0.17,0.26-0.367,0.452-0.59,0.574c-0.223,0.123-0.486,0.184-0.79,0.184
		c-0.49,0-0.862-0.133-1.117-0.4c-0.256-0.266-0.383-0.66-0.383-1.18c0-0.74,0.216-1.361,0.648-1.863
		c0.432-0.502,0.964-0.753,1.596-0.753c0.248,0,0.463,0.051,0.646,0.153c0.183,0.102,0.333,0.254,0.451,0.456l0.247-0.456h0.827
		l-0.683,2.778c-0.009,0.034-0.017,0.068-0.023,0.104c-0.007,0.036-0.01,0.064-0.01,0.086c0,0.108,0.037,0.19,0.111,0.244
		c0.074,0.054,0.185,0.082,0.33,0.082c0.121,0,0.247-0.031,0.378-0.093c0.132-0.062,0.255-0.148,0.369-0.26
		c0.267-0.248,0.469-0.538,0.606-0.869c0.138-0.332,0.207-0.696,0.207-1.092c0-0.744-0.287-1.354-0.862-1.833
		s-1.315-0.718-2.223-0.718c-0.437,0-0.843,0.052-1.22,0.158c-0.376,0.105-0.718,0.262-1.024,0.47
		c-0.527,0.353-0.932,0.794-1.215,1.323c-0.283,0.53-0.425,1.111-0.425,1.743c0,0.951,0.32,1.711,0.962,2.279
		c0.641,0.568,1.497,0.853,2.569,0.853c0.501,0,0.992-0.076,1.47-0.228s0.924-0.372,1.335-0.66l0.381,0.543
		c-0.474,0.356-0.977,0.624-1.508,0.804c-0.531,0.18-1.084,0.27-1.661,0.27c-0.594,0-1.141-0.075-1.64-0.226
		c-0.498-0.15-0.941-0.372-1.329-0.667c-0.48-0.374-0.839-0.806-1.078-1.296c-0.239-0.489-0.358-1.043-0.358-1.663
		c0-0.517,0.082-1.011,0.244-1.48c0.163-0.469,0.402-0.896,0.718-1.28c0.459-0.561,1.01-0.984,1.654-1.272s1.361-0.432,2.151-0.432
		c0.523,0,1.015,0.07,1.475,0.211c0.46,0.141,0.86,0.34,1.201,0.597c0.418,0.325,0.731,0.696,0.937,1.113
		c0.206,0.417,0.309,0.886,0.309,1.41c0,0.511-0.102,0.982-0.305,1.415c-0.203,0.433-0.494,0.801-0.875,1.108
		c-0.217,0.173-0.453,0.306-0.708,0.397c-0.256,0.091-0.521,0.137-0.797,0.137c-0.328,0-0.575-0.065-0.741-0.195
		C16.483,14.748,16.397,14.556,16.391,14.301z M16.623,12.313c-0.04-0.25-0.129-0.442-0.267-0.574
		c-0.138-0.132-0.32-0.198-0.546-0.198c-0.354,0-0.66,0.192-0.92,0.577c-0.261,0.384-0.391,0.845-0.391,1.384
		c0,0.285,0.063,0.501,0.188,0.65c0.125,0.148,0.307,0.224,0.546,0.224c0.257,0,0.491-0.098,0.704-0.293
		c0.212-0.195,0.356-0.449,0.434-0.762L16.623,12.313z"/>
	<path fill="#FFFFFF" d="M23.776,8.764h1.025l-0.678,1.928h1.125l0.688-1.928h1.026l-0.688,1.928h1.315l-0.344,0.934h-1.302
		l-0.39,1.125h1.347l-0.33,0.934h-1.353l-0.687,1.928h-1.026l0.688-1.928H23.06l-0.692,1.928h-1.022l0.679-1.928H20.69l0.354-0.934
		h1.311l0.398-1.125h-1.388l0.343-0.934h1.381L23.776,8.764z M23.776,11.625l-0.41,1.133h1.167l0.399-1.133H23.776z"/>
	<path fill="#FFFFFF" d="M28.956,13.661l-0.363-3.081V8.722h1.432v1.858l-0.363,3.081H28.956z M28.612,15.565v-1.371h1.379v1.371
		H28.612z"/>
</g>
</svg>
