<?xml version="1.0" encoding="utf-8"?>
<!-- Generator: Adobe Illustrator 16.0.1, SVG Export Plug-In . SVG Version: 6.00 Build 0)  -->
<!DOCTYPE svg PUBLIC "-//W3C//DTD SVG 1.1//EN" "http://www.w3.org/Graphics/SVG/1.1/DTD/svg11.dtd">
<svg version="1.1" id="Layer_1" xmlns="http://www.w3.org/2000/svg" xmlns:xlink="http://www.w3.org/1999/xlink" x="0px" y="0px"
	 width="54.25px" height="21.71px" viewBox="0 0 54.25 21.71" enable-background="new 0 0 54.25 21.71" xml:space="preserve">
<path fill="#FFFFFF" d="M53.826,17.128C49.365,7.294,39.434,0.585,28.527,0.037C16.455-0.57,5.338,6.324,0.465,17.2
	c-0.685,1.348-0.747,3.197,0.738,4.075c0.484,0.285,0.99,0.43,1.503,0.43c1.401,0,2.248-1.067,2.339-1.188l0.135-0.232
	c3.92-9.023,13.28-14.967,23.057-14.481c8.803,0.441,16.857,5.885,20.502,13.829c0.318,0.771,1.264,2.078,2.787,2.078l0,0
	c0.295,0,0.597-0.051,0.949-0.17c0.77-0.301,1.318-0.832,1.589-1.537C54.572,18.681,53.886,17.247,53.826,17.128z"/>
</svg>
