<?xml version="1.0" encoding="utf-8"?>
<!-- Generator: Adobe Illustrator 16.0.1, SVG Export Plug-In . SVG Version: 6.00 Build 0)  -->
<!DOCTYPE svg PUBLIC "-//W3C//DTD SVG 1.1//EN" "http://www.w3.org/Graphics/SVG/1.1/DTD/svg11.dtd">
<svg version="1.1" id="Layer_1" xmlns="http://www.w3.org/2000/svg" xmlns:xlink="http://www.w3.org/1999/xlink" x="0px" y="0px"
	 width="72.036px" height="54.137px" viewBox="0 0 72.036 54.137" enable-background="new 0 0 72.036 54.137" xml:space="preserve">
<path fill="#FFFFFF" d="M0,13.522v12.171c0,7.47,6.055,13.522,13.522,13.522h6.769L20.25,54.137l12.654-14.921h25.611
	c7.468,0,13.521-6.053,13.521-13.522V13.522C72.036,6.054,65.982,0,58.514,0H13.522C6.055,0,0,6.054,0,13.522 M5.409,13.522
	c0-4.48,3.633-8.113,8.113-8.113h44.992c4.479,0,8.112,3.633,8.112,8.113v12.171c0,4.481-3.634,8.114-8.112,8.114H13.522
	c-4.48,0-8.113-3.633-8.113-8.114V13.522z"/>
<g>
	<path fill="#FFFFFF" d="M17.384,25.568V14.764h-3.902v-2.349h10.484v2.349H20.09v10.805H17.384z"/>
	<path fill="#FFFFFF" d="M27.425,12.415h3.126l4.742,13.154h-2.84l-0.893-2.706h-5.099l-0.866,2.706h-2.849L27.425,12.415z
		 M28.997,15.049l-1.821,5.599h3.652L28.997,15.049z"/>
	<path fill="#FFFFFF" d="M36.543,25.568V12.415h2.706v10.725h6.42v2.429H36.543z"/>
	<path fill="#FFFFFF" d="M46.979,25.568V12.415h2.707v5.403l5.135-5.403h3.385l-5.251,5.322l5.724,7.832h-3.305l-4.285-6.019
		l-1.402,1.393v4.626H46.979z"/>
</g>
</svg>
