<?xml version="1.0" encoding="utf-8"?>
<!-- Generator: Adobe Illustrator 16.0.1, SVG Export Plug-In . SVG Version: 6.00 Build 0)  -->
<!DOCTYPE svg PUBLIC "-//W3C//DTD SVG 1.1//EN" "http://www.w3.org/Graphics/SVG/1.1/DTD/svg11.dtd">
<svg version="1.1" id="Layer_1" xmlns="http://www.w3.org/2000/svg" xmlns:xlink="http://www.w3.org/1999/xlink" x="0px" y="0px"
	 width="87.115px" height="315.12px" viewBox="0 0 87.115 315.12" enable-background="new 0 0 87.115 315.12" xml:space="preserve">
<path fill="#FFFFFF" d="M70.137,36.789c-8.754-1.915-17.664-2.872-26.581-2.872c-8.917,0-17.833,0.957-26.583,2.872
	c-3.359,0.734-6.044,4.271-6.044,7.706v74.875c0,3.433,1.896,8.303,4.762,10.202c7.272,4.818,17.583,7.225,27.888,7.225
	c10.294,0,20.585-2.403,27.844-7.221c2.863-1.902,4.761-6.773,4.761-10.206V44.486C76.184,41.053,73.493,37.523,70.137,36.789z
	 M71.207,109.741c0,2.715-2.202,4.923-4.922,4.923H20.826c-2.719,0-4.923-2.208-4.923-4.923V47.011c0-2.718,2.204-4.927,4.923-4.927
	h45.459c2.72,0,4.922,2.209,4.922,4.927V109.741z M45.629-0.08h-4.146C18.569-0.08,0,18.488,0,41.396v95.386
	c0,8.662,4.428,16.283,11.142,20.741C4.428,161.976,0,169.595,0,178.254v95.39c0,22.908,18.575,41.476,41.483,41.476h4.146
	c22.915,0,41.486-18.567,41.486-41.476v-95.39c0-8.659-4.431-16.278-11.145-20.731c6.714-4.458,11.145-12.079,11.145-20.741V41.396
	C87.115,18.488,68.544-0.08,45.629-0.08z M33.267,15.387h20.578c1.662,0,3.006,1.345,3.006,2.998c0,1.665-1.344,3.004-3.006,3.004
	H33.267c-1.662,0-3.004-1.339-3.004-3.004C30.262,16.732,31.605,15.387,33.267,15.387z M11.679,196.114
	c-0.161-0.71-0.306-1.438-0.423-2.172c-0.321-1.993,1.258-3.639,3.279-3.639h8.043c2.02,0,3.925,1.639,4.699,3.505
	c0.434,1.048,0.966,2.053,1.589,2.989c1.111,1.696,0.678,2.829-1.341,2.829H16.37C14.356,199.626,12.141,198.081,11.679,196.114z
	 M11.216,180.276c0.116-0.727,0.248-1.446,0.407-2.157c0.443-1.974,2.638-3.526,4.659-3.526h11.222c2.014,0,2.458,1.141,1.347,2.827
	c-0.622,0.936-1.151,1.939-1.583,2.987c-0.765,1.874-2.67,3.508-4.689,3.508h-8.054C12.496,183.915,10.907,182.274,11.216,180.276z
	 M29.736,275.52c0,2.046-1.584,3.482-3.521,3.113c-3.341-0.62-5.003-1.013-8.291-1.94c-1.91-0.547-3.436-2.618-3.436-4.554v-4.602
	c0-1.938,1.535-3.106,3.45-2.661c3.295,0.751,4.961,1.071,8.3,1.584c1.937,0.295,3.512,2.144,3.506,4.192
	C29.745,272.6,29.745,273.568,29.736,275.52z M29.776,257.547c0,2.047-1.586,3.554-3.524,3.283
	c-3.339-0.455-5.006-0.742-8.309-1.416c-1.92-0.399-3.455-2.34-3.455-4.275v-4.6c0-1.937,1.545-3.242,3.465-2.948
	c3.315,0.504,4.982,0.717,8.323,1.06c1.936,0.192,3.512,1.99,3.508,4.031C29.785,254.632,29.785,255.606,29.776,257.547z
	 M29.815,239.575c-0.007,2.051-1.59,3.606-3.529,3.44c-3.342-0.285-5.002-0.456-8.325-0.885c-1.927-0.246-3.473-2.052-3.473-3.99
	v-4.609c0-1.938,1.556-3.365,3.49-3.219c3.326,0.255,4.994,0.358,8.333,0.526c1.941,0.094,3.519,1.82,3.51,3.874
	C29.822,236.658,29.815,237.627,29.815,239.575z M29.852,221.602c0,2.052-1.589,3.667-3.529,3.603
	c-3.342-0.114-5.011-0.193-8.341-0.361c-1.938-0.103-3.494-1.765-3.494-3.706v-4.602c0-1.941,1.564-3.513,3.507-3.513h8.356
	c1.941,0,3.508,1.656,3.5,3.716C29.852,218.677,29.855,219.651,29.852,221.602z M47.782,280.154c-3.385,0.152-5.08,0.152-8.459,0
	c-1.96-0.087-3.546-1.902-3.546-3.974c0-1.966,0.009-2.952,0.01-4.92c0-2.066,1.589-3.636,3.55-3.564
	c3.371,0.125,5.057,0.125,8.431,0c1.961-0.071,3.546,1.498,3.551,3.564c0.003,1.968,0.009,2.954,0.009,4.92
	C51.327,278.251,49.744,280.067,47.782,280.154z M39.358,231.251c3.359,0.04,5.035,0.04,8.387,0
	c1.948-0.027,3.527,1.615,3.527,3.689c0.009,1.968,0,2.951,0,4.915c0.009,2.072-1.567,3.82-3.519,3.858
	c-3.36,0.071-5.04,0.071-8.397,0c-1.95-0.038-3.531-1.786-3.531-3.858c0.005-1.964,0.005-2.947,0.012-4.915
	C35.838,232.867,37.418,231.224,39.358,231.251z M35.852,221.696v-4.917c0.011-2.077,1.587-3.756,3.522-3.756h8.352
	c1.939,0,3.519,1.679,3.519,3.756c0.001,1.965,0.005,2.948,0.005,4.917c0,2.073-1.572,3.775-3.511,3.792
	c-3.35,0.026-5.021,0.026-8.371,0C37.426,225.471,35.852,223.769,35.852,221.696z M39.353,249.474c3.361,0.082,5.041,0.082,8.402,0
	c1.954-0.048,3.535,1.561,3.535,3.629c0.005,1.966,0.005,2.95,0.012,4.913c0.003,2.072-1.582,3.85-3.538,3.923
	c-3.37,0.108-5.056,0.108-8.427,0c-1.954-0.073-3.531-1.851-3.531-3.923c0.003-1.963,0-2.947,0.003-4.913
	C35.81,251.035,37.399,249.426,39.353,249.474z M56.844,190.303c-1.009,4.188-3.938,7.632-7.807,9.323
	c-1.684,0.737-3.533,1.148-5.478,1.148c-1.947,0-3.802-0.411-5.481-1.148c-3.873-1.691-6.799-5.136-7.805-9.323
	c-0.244-1.028-0.396-2.103-0.396-3.201c0-1.101,0.14-2.161,0.387-3.188c0.998-4.18,3.91-7.613,7.773-9.322
	c1.688-0.746,3.554-1.164,5.522-1.164c1.964,0,3.825,0.418,5.519,1.164c3.859,1.709,6.771,5.143,7.77,9.322
	c0.251,1.026,0.389,2.087,0.389,3.188C57.236,188.201,57.089,189.275,56.844,190.303z M72.623,272.139
	c0,1.936-1.533,4.013-3.439,4.554c-3.284,0.928-4.945,1.32-8.286,1.95c-1.943,0.359-3.518-1.077-3.521-3.123
	c-0.009-1.943,0-2.92-0.009-4.867c-0.005-2.049,1.569-3.897,3.505-4.192c3.34-0.513,5.006-0.833,8.302-1.584
	c1.909-0.445,3.449,0.723,3.449,2.661V272.139z M72.623,255.139c0,1.936-1.54,3.876-3.46,4.263c-3.297,0.687-4.966,0.974-8.3,1.429
	c-1.947,0.271-3.524-1.236-3.528-3.283c-0.007-1.941,0-2.915-0.007-4.865c-0.003-2.041,1.57-3.832,3.506-4.031
	c3.341-0.343,5.006-0.556,8.316-1.06c1.922-0.294,3.473,1.012,3.473,2.948V255.139z M72.623,238.14c0,1.938-1.551,3.744-3.473,3.99
	c-3.322,0.429-4.982,0.6-8.325,0.885c-1.939,0.174-3.519-1.39-3.525-3.44c-0.003-1.947-0.003-2.917-0.006-4.862
	c-0.005-2.054,1.563-3.78,3.507-3.874c3.344-0.168,5.006-0.271,8.332-0.526c1.929-0.146,3.49,1.28,3.49,3.219V238.14z
	 M72.623,221.137c0,1.941-1.562,3.607-3.495,3.706c-3.328,0.168-4.997,0.247-8.34,0.361c-1.939,0.064-3.519-1.551-3.523-3.603
	c-0.005-1.951-0.005-2.925-0.005-4.863c-0.004-2.051,1.56-3.716,3.501-3.716h8.35c1.941,0,3.513,1.571,3.513,3.513V221.137z
	 M75.432,196.114c-0.461,1.967-2.672,3.513-4.69,3.513H59.588c-2.02,0-2.453-1.133-1.343-2.829c0.632-0.937,1.158-1.941,1.593-2.989
	c0.775-1.866,2.685-3.505,4.696-3.505h8.054c2.018,0,3.596,1.646,3.268,3.639C75.738,194.676,75.601,195.404,75.432,196.114z
	 M72.593,183.915h-8.059c-2.012,0-3.919-1.634-4.688-3.508c-0.426-1.048-0.964-2.052-1.577-2.987
	c-1.109-1.687-0.676-2.827,1.343-2.827H70.83c2.02,0,4.224,1.553,4.661,3.526c0.155,0.711,0.294,1.431,0.405,2.157
	C76.21,182.274,74.615,183.915,72.593,183.915z M78.261,119.37c0,4.008-2.132,9.57-5.69,11.933
	c-7.248,4.811-17.815,7.566-28.992,7.566c-11.184,0-21.768-2.756-29.034-7.569c-3.562-2.359-5.694-7.92-5.694-11.93V44.495
	c0-4.44,3.445-8.805,7.676-9.729c8.858-1.937,17.95-2.92,27.029-2.92c9.075,0,18.169,0.983,27.025,2.92
	c4.231,0.924,7.68,5.283,7.68,9.721V119.37z"/>
</svg>
