<?xml version="1.0" encoding="utf-8"?>
<!-- Generator: Adobe Illustrator 16.0.1, SVG Export Plug-In . SVG Version: 6.00 Build 0)  -->
<!DOCTYPE svg PUBLIC "-//W3C//DTD SVG 1.1//EN" "http://www.w3.org/Graphics/SVG/1.1/DTD/svg11.dtd">
<svg version="1.1" id="Layer_1" xmlns="http://www.w3.org/2000/svg" xmlns:xlink="http://www.w3.org/1999/xlink" x="0px" y="0px"
	 width="347.728px" height="450px" viewBox="0 0 347.728 450" enable-background="new 0 0 347.728 450" xml:space="preserve">
<g>
	<g>
		<rect fill="#FFFFFF" width="347.728" height="450"/>
	</g>
	<g>
		<path fill="#484748" d="M297.416,67.888H50.312c-1.656,0-3-1.343-3-3s1.344-3,3-3h247.104c1.657,0,3,1.343,3,3
			S299.073,67.888,297.416,67.888z"/>
	</g>
	<g>
		<path fill="#484748" d="M297.416,87.888H50.312c-1.656,0-3-1.343-3-3s1.344-3,3-3h247.104c1.657,0,3,1.343,3,3
			S299.073,87.888,297.416,87.888z"/>
	</g>
	<g>
		<path fill="#484748" d="M297.416,107.888H50.312c-1.656,0-3-1.343-3-3s1.344-3,3-3h247.104c1.657,0,3,1.343,3,3
			S299.073,107.888,297.416,107.888z"/>
	</g>
	<g>
		<path fill="#484748" d="M297.416,127.888H50.312c-1.656,0-3-1.343-3-3s1.344-3,3-3h247.104c1.657,0,3,1.343,3,3
			S299.073,127.888,297.416,127.888z"/>
	</g>
	<g>
		<path fill="#484748" d="M297.416,147.888H50.312c-1.656,0-3-1.343-3-3s1.344-3,3-3h247.104c1.657,0,3,1.343,3,3
			S299.073,147.888,297.416,147.888z"/>
	</g>
	<g>
		<path fill="#484748" d="M297.416,167.888H50.312c-1.656,0-3-1.343-3-3s1.344-3,3-3h247.104c1.657,0,3,1.343,3,3
			S299.073,167.888,297.416,167.888z"/>
	</g>
	<g>
		<path fill="#484748" d="M297.416,187.888H50.312c-1.656,0-3-1.343-3-3s1.344-3,3-3h247.104c1.657,0,3,1.343,3,3
			S299.073,187.888,297.416,187.888z"/>
	</g>
	<g>
		<path fill="#484748" d="M297.416,207.888H50.312c-1.656,0-3-1.343-3-3s1.344-3,3-3h247.104c1.657,0,3,1.343,3,3
			S299.073,207.888,297.416,207.888z"/>
	</g>
	<g>
		<path fill="#484748" d="M297.416,227.888H50.312c-1.656,0-3-1.343-3-3s1.344-3,3-3h247.104c1.657,0,3,1.343,3,3
			S299.073,227.888,297.416,227.888z"/>
	</g>
	<g>
		<path fill="#484748" d="M297.416,247.888H50.312c-1.656,0-3-1.343-3-3s1.344-3,3-3h247.104c1.657,0,3,1.343,3,3
			S299.073,247.888,297.416,247.888z"/>
	</g>
	<g>
		<path fill="#484748" d="M297.416,267.888H50.312c-1.656,0-3-1.343-3-3s1.344-3,3-3h247.104c1.657,0,3,1.343,3,3
			S299.073,267.888,297.416,267.888z"/>
	</g>
	<g>
		<path fill="#484748" d="M297.416,287.888H50.312c-1.656,0-3-1.343-3-3s1.344-3,3-3h247.104c1.657,0,3,1.343,3,3
			S299.073,287.888,297.416,287.888z"/>
	</g>
	<g>
		<path fill="#484748" d="M297.416,307.888H50.312c-1.656,0-3-1.343-3-3s1.344-3,3-3h247.104c1.657,0,3,1.343,3,3
			S299.073,307.888,297.416,307.888z"/>
	</g>
	<g>
		<path fill="#484748" d="M297.416,327.888H50.312c-1.656,0-3-1.343-3-3s1.344-3,3-3h247.104c1.657,0,3,1.343,3,3
			S299.073,327.888,297.416,327.888z"/>
	</g>
	<g>
		<path fill="#484748" d="M297.416,347.888H50.312c-1.656,0-3-1.343-3-3s1.344-3,3-3h247.104c1.657,0,3,1.343,3,3
			S299.073,347.888,297.416,347.888z"/>
	</g>
	<g>
		<path fill="#484748" d="M173.863,367.888H50.312c-1.657,0-3-1.343-3-3s1.343-3,3-3h123.552c1.657,0,3,1.343,3,3
			S175.521,367.888,173.863,367.888z"/>
	</g>
</g>
</svg>
