<?xml version="1.0" encoding="utf-8"?>
<!-- Generator: Adobe Illustrator 16.0.1, SVG Export Plug-In . SVG Version: 6.00 Build 0)  -->
<!DOCTYPE svg PUBLIC "-//W3C//DTD SVG 1.1//EN" "http://www.w3.org/Graphics/SVG/1.1/DTD/svg11.dtd">
<svg version="1.1" id="Layer_1" xmlns="http://www.w3.org/2000/svg" xmlns:xlink="http://www.w3.org/1999/xlink" x="0px" y="0px"
	 width="332.448px" height="539.728px" viewBox="0 0 332.448 539.728" enable-background="new 0 0 332.448 539.728"
	 xml:space="preserve">
<g>
	<polygon fill="#FFFFFF" points="40.355,50.973 41.823,72.017 40.735,92.657 40.582,113.298 40.598,119.235 42.135,133.298 
		40.145,139.235 40.116,153.298 41.378,159.235 42.361,173.298 41.125,179.235 41.445,193.298 40.055,199.235 39.988,213.298 
		40.413,219.235 40.614,233.298 42.355,239.235 40.787,253.298 41.53,259.235 41.054,273.298 41.409,279.235 39.938,293.298 
		42.138,299.235 40.482,313.298 40.029,319.235 42.34,333.298 41.826,339.235 40.841,353.298 41.316,359.235 40.155,373.298 
		42.053,379.235 40.484,393.298 42.097,399.235 42.538,413.298 41.031,419.235 42.139,446.614 40.755,473.997 40.541,501.617 
		51.195,501.38 51.12,474.011 52.431,446.639 50.056,419.267 50.085,413.267 50.545,399.267 50.043,393.267 51.41,379.267 
		51.794,373.267 52.518,359.267 51.098,353.267 51.74,339.267 50.334,333.267 51.823,319.267 52.5,313.267 50.513,299.267 
		52.341,293.267 50.968,279.267 51.512,273.267 50.27,259.267 51.363,253.267 50.713,239.267 51.726,233.267 52.202,219.267 
		52.514,213.267 52.271,199.267 52.039,193.267 50.182,179.267 50.206,173.267 51.16,159.267 50.252,153.267 51.168,139.267 
		52.037,133.267 49.982,119.267 51.102,113.267 51.385,92.639 51.533,72.009 51.208,51.371 	"/>
	<path fill="#484748" d="M49.992,119.267l1.125-6H40.882c-0.106,0-0.208,0.021-0.312,0.031v5.938
		c0.104,0.011,0.205,0.031,0.312,0.031H49.992z"/>
	<path fill="#484748" d="M51.193,139.267l0.846-6h-9.642c-0.106,0-0.208,0.021-0.312,0.031l-1.953,5.938
		c0.104,0.011,0.205,0.031,0.312,0.031H51.193z"/>
	<path fill="#484748" d="M51.193,159.267l-0.92-6h-9.876c-0.106,0-0.208,0.021-0.312,0.031l1.282,5.938
		c0.104,0.011,0.205,0.031,0.312,0.031H51.193z"/>
	<path fill="#484748" d="M50.195,179.267l0.031-6h-7.579c-0.106,0-0.208,0.021-0.312,0.031l-1.25,5.938
		c0.104,0.011,0.312,0.031,0.419,0.031H50.195z"/>
	<path fill="#484748" d="M52.273,199.267l-0.234-6H41.726c-0.106,0-0.208,0.021-0.312,0.031l-1.359,5.938
		c0.104,0.011,1.344,0.031,1.45,0.031H52.273z"/>
	<path fill="#484748" d="M52.211,219.267l0.328-6H41.505c-0.106,0-1.409,0.021-1.513,0.031l0.391,5.938
		c0.104,0.011,1.016,0.031,1.122,0.031H52.211z"/>
	<path fill="#484748" d="M50.711,239.267l1.031-6H41.505c-0.106,0-0.8,0.021-0.903,0.031l1.751,5.938
		c0.104,0.011,0.205,0.031,0.312,0.031H50.711z"/>
	<path fill="#484748" d="M50.273,259.267l1.109-6h-9.878c-0.106,0-0.628,0.021-0.731,0.031l0.766,5.938
		c0.104,0.011,0.205,0.031,0.312,0.031H50.273z"/>
	<path fill="#484748" d="M50.992,279.267l0.516-6H41.505c-0.106,0-0.347,0.021-0.45,0.031l0.344,5.938
		c0.104,0.011,0.205,0.031,0.312,0.031H50.992z"/>
	<path fill="#484748" d="M50.523,299.267l1.828-6H41.505c-0.106,0-1.472,0.021-1.575,0.031l2.188,5.938
		c0.104,0.011,0.205,0.031,0.312,0.031H50.523z"/>
	<path fill="#484748" d="M51.82,319.267l0.688-6H41.505c-0.106,0-0.94,0.021-1.044,0.031l-0.453,5.938
		c0.104,0.011,1.391,0.031,1.497,0.031H51.82z"/>
	<path fill="#484748" d="M51.779,339.267l-1.43-6H42.61c-0.106,0-0.208,0.021-0.312,0.031l-0.463,5.938
		c0.104,0.011,0.127,0.031,0.233,0.031H51.779z"/>
	<path fill="#484748" d="M52.542,359.267l-1.44-6h-9.597c-0.106,0-0.208,0.021-0.685,0.031l0.453,5.938
		c0.477,0.011,0.125,0.031,0.231,0.031H52.542z"/>
	<path fill="#484748" d="M51.398,379.267l0.422-6h-9.27c-0.106,0-2.283,0.021-2.387,0.031l1.891,5.938
		c0.104,0.011,0.39,0.031,0.496,0.031H51.398z"/>
	<path fill="#484748" d="M50.583,399.267l-0.522-6h-9.688c2.011,0,0.176,0.021,0.072,0.031l1.631,5.938
		c0.104,0.011,0.308,0.031,0.414,0.031H50.583z"/>
	<path fill="#484748" d="M41.505,413.267c-0.106,0,1.135,0.021,1.031,0.031l-1.521,5.938c0.104,0.011,0.384,0.031,0.49,0.031h8.542
		l0.032-6H41.505z"/>
</g>
<g>
	<polygon fill="#FFFFFF" points="181.136,153.286 179.896,139.286 191.136,139.286 191.896,153.286 191.896,153.326 
		181.146,153.326 	"/>
	<polygon fill="#FFFFFF" points="191.105,173.286 181.176,173.286 182.155,159.326 191.335,159.326 	"/>
	<polygon fill="#FFFFFF" points="181.926,213.286 180.045,199.286 190.235,199.286 190.495,213.286 	"/>
	<polygon fill="#FFFFFF" points="191.976,233.286 180.676,233.286 181.605,219.286 191.346,219.286 	"/>
	<polygon fill="#FFFFFF" points="182.245,253.286 181.735,239.286 190.625,239.286 191.465,253.286 	"/>
	<polygon fill="#FFFFFF" points="182.525,273.286 182.255,259.286 190.346,259.286 191.396,273.286 	"/>
	<polygon fill="#FFFFFF" points="189.945,293.286 181.165,293.286 181.476,279.286 190.075,279.286 	"/>
	<polygon fill="#FFFFFF" points="191.176,333.286 179.855,333.286 182.065,319.286 190.436,319.286 	"/>
	<polygon fill="#FFFFFF" points="191.096,353.286 180.285,353.286 180.766,339.286 191.636,339.286 	"/>
	<polygon fill="#FFFFFF" points="190.125,373.286 180.226,373.286 180.516,359.286 191.815,359.286 	"/>
	<polygon fill="#FFFFFF" points="191.655,393.286 181.065,393.286 182.176,379.286 191.886,379.286 	"/>
	<polygon fill="#FFFFFF" points="191.556,470.347 191.995,495.866 190.375,521.077 181.426,521.306 182.285,495.866 
		182.415,470.337 181.476,444.806 180.176,419.286 191.016,419.286 191.226,444.815 	"/>
	<polygon fill="#FFFFFF" points="192.335,413.286 180.235,413.286 182.275,399.286 191.605,399.286 	"/>
	<polygon fill="#FFFFFF" points="181.545,313.286 180.655,299.286 192.215,299.286 191.426,313.286 	"/>
	<polygon fill="#FFFFFF" points="192.016,193.286 181.056,193.286 181.985,179.286 192.016,179.286 	"/>
	<polygon fill="#FFFFFF" points="181.565,112.656 180.295,92.026 180.855,71.227 190.465,71.756 191.936,92.026 191.766,112.656 
		192.065,133.286 182.445,133.286 	"/>
	<polygon fill="#484748" points="192.065,133.286 191.136,139.286 179.896,139.286 182.445,133.286 	"/>
	<polygon fill="#484748" points="191.896,153.326 191.335,159.286 191.335,159.326 182.155,159.326 182.155,159.286 
		181.146,153.326 	"/>
	<polygon fill="#484748" points="192.016,179.286 181.985,179.286 181.176,173.286 191.105,173.286 	"/>
	<polygon fill="#484748" points="192.016,193.286 190.235,199.286 180.045,199.286 181.056,193.286 	"/>
	<polygon fill="#484748" points="191.346,219.286 181.605,219.286 181.926,213.286 190.495,213.286 	"/>
	<polygon fill="#484748" points="191.976,233.286 190.625,239.286 181.735,239.286 180.676,233.286 	"/>
	<polygon fill="#484748" points="191.465,253.286 190.346,259.286 182.255,259.286 182.245,253.286 	"/>
	<polygon fill="#484748" points="191.396,273.286 190.075,279.286 181.476,279.286 182.525,273.286 	"/>
	<polygon fill="#484748" points="192.215,299.286 180.655,299.286 181.165,293.286 189.945,293.286 	"/>
	<polygon fill="#484748" points="191.426,313.286 190.436,319.286 182.065,319.286 181.545,313.286 	"/>
	<polygon fill="#484748" points="191.636,339.286 180.766,339.286 179.855,333.286 191.176,333.286 	"/>
	<polygon fill="#484748" points="191.815,359.286 180.516,359.286 180.285,353.286 191.096,353.286 	"/>
	<polygon fill="#484748" points="191.886,379.286 182.176,379.286 180.226,373.286 190.125,373.286 	"/>
	<polygon fill="#484748" points="191.655,393.286 191.605,399.286 182.275,399.286 181.065,393.286 	"/>
	<polygon fill="#484748" points="192.335,413.286 191.016,419.286 180.176,419.286 180.235,413.286 	"/>
</g>
<g>
	<polygon fill="#FFFFFF" points="201.146,93.876 199.905,73.246 200.636,52.346 212.355,52.026 212.186,73.246 210.436,93.876 
		210.355,114.506 200.056,114.506 	"/>
	<polygon fill="#FFFFFF" points="211.465,134.546 200.646,134.546 200.646,134.506 202.455,120.506 211.505,120.506 
		211.465,134.506 	"/>
	<polygon fill="#FFFFFF" points="202.085,154.506 200.516,140.546 211.165,140.546 210.686,154.506 	"/>
	<polygon fill="#FFFFFF" points="200.266,174.506 200.155,160.506 209.896,160.506 211.115,174.506 	"/>
	<polygon fill="#FFFFFF" points="210.075,194.506 202.186,194.506 202.335,180.506 211.815,180.506 	"/>
	<polygon fill="#FFFFFF" points="202.346,214.506 201.926,200.506 211.146,200.506 211.146,214.506 	"/>
	<polygon fill="#FFFFFF" points="201.695,234.506 201.025,220.506 212.136,220.506 210.695,234.506 	"/>
	<polygon fill="#FFFFFF" points="210.096,254.506 201.136,254.506 202.016,240.506 210.266,240.506 	"/>
	<polygon fill="#FFFFFF" points="210.396,274.506 200.405,274.506 201.016,260.506 210.545,260.506 	"/>
	<polygon fill="#FFFFFF" points="212.115,294.506 200.985,294.506 201.755,280.506 211.865,280.506 	"/>
	<polygon fill="#FFFFFF" points="210.445,314.506 200.186,314.506 200.205,300.506 210.325,300.506 	"/>
	<polygon fill="#FFFFFF" points="202.285,334.507 201.176,320.507 210.465,320.507 209.945,334.507 	"/>
	<polygon fill="#FFFFFF" points="211.386,354.507 200.405,354.507 200.855,340.507 210.445,340.507 	"/>
	<polygon fill="#FFFFFF" points="201.926,374.507 201.445,360.507 212.355,360.507 212.245,374.507 	"/>
	<polygon fill="#FFFFFF" points="201.165,394.507 200.056,380.507 210.565,380.507 210.686,394.507 	"/>
	<polygon fill="#FFFFFF" points="210.165,451.565 212.306,477.087 210.825,502.466 201.445,502.517 202.516,477.087 
		201.825,451.556 200.775,426.026 200.226,400.507 211.655,400.507 212.426,426.036 	"/>
	<polygon fill="#484748" points="211.505,120.506 202.455,120.506 200.056,114.506 210.355,114.506 	"/>
	<polygon fill="#484748" points="211.465,134.546 211.165,140.506 211.165,140.546 200.516,140.546 200.516,140.506 
		200.646,134.546 	"/>
	<polygon fill="#484748" points="210.686,154.506 209.896,160.506 200.155,160.506 202.085,154.506 	"/>
	<polygon fill="#484748" points="211.815,180.506 202.335,180.506 200.266,174.506 211.115,174.506 	"/>
	<polygon fill="#484748" points="211.146,200.506 201.926,200.506 202.186,194.506 210.075,194.506 	"/>
	<polygon fill="#484748" points="212.136,220.506 201.025,220.506 202.346,214.506 211.146,214.506 	"/>
	<polygon fill="#484748" points="210.695,234.506 210.266,240.506 202.016,240.506 201.695,234.506 	"/>
	<polygon fill="#484748" points="210.545,260.506 201.016,260.506 201.136,254.506 210.096,254.506 	"/>
	<polygon fill="#484748" points="211.865,280.506 201.755,280.506 200.405,274.506 210.396,274.506 	"/>
	<polygon fill="#484748" points="212.115,294.506 210.325,300.506 200.205,300.506 200.985,294.506 	"/>
	<polygon fill="#484748" points="210.465,320.507 201.176,320.507 200.186,314.506 210.445,314.506 	"/>
	<polygon fill="#484748" points="210.445,340.507 200.855,340.507 202.285,334.507 209.945,334.507 	"/>
	<polygon fill="#484748" points="212.355,360.507 201.445,360.507 200.405,354.507 211.386,354.507 	"/>
	<polygon fill="#484748" points="212.245,374.507 210.565,380.507 200.056,380.507 201.926,374.507 	"/>
	<polygon fill="#484748" points="211.655,400.507 200.226,400.507 201.165,394.507 210.686,394.507 	"/>
</g>
<g>
	<polygon fill="#FFFFFF" points="222.525,59.446 219.896,38.816 221.415,18.296 231.865,17.866 230.825,38.816 231.965,59.446 
		231.825,80.076 220.075,80.076 	"/>
	<polygon fill="#FFFFFF" points="220.795,100.076 220.075,86.076 231.945,86.076 232.195,100.076 232.195,100.116 220.795,100.116 	
		"/>
	<polygon fill="#FFFFFF" points="231.625,120.076 220.226,120.076 220.235,106.116 232.096,106.116 	"/>
	<polygon fill="#FFFFFF" points="221.485,140.076 221.025,126.076 231.896,126.076 231.926,140.076 	"/>
	<polygon fill="#FFFFFF" points="222.245,160.076 221.436,146.076 231.096,146.076 232.235,160.076 	"/>
	<polygon fill="#FFFFFF" points="220.585,180.076 220.535,166.076 230.405,166.076 229.985,180.076 	"/>
	<polygon fill="#FFFFFF" points="231.766,200.076 221.085,200.076 222.235,186.076 230.365,186.076 	"/>
	<polygon fill="#FFFFFF" points="231.905,220.076 220.695,220.076 221.465,206.076 230.455,206.076 	"/>
	<polygon fill="#FFFFFF" points="220.625,240.076 219.886,226.076 231.255,226.076 231.056,240.076 	"/>
	<polygon fill="#FFFFFF" points="230.825,260.076 220.165,260.076 221.525,246.076 231.965,246.076 	"/>
	<polygon fill="#FFFFFF" points="222.365,280.076 221.875,266.076 231.335,266.076 230.405,280.076 	"/>
	<polygon fill="#FFFFFF" points="231.476,300.077 219.846,300.077 222.005,286.077 230.115,286.077 	"/>
	<polygon fill="#FFFFFF" points="222.306,320.077 219.886,306.077 230.375,306.077 232.415,320.077 	"/>
	<polygon fill="#FFFFFF" points="220.965,340.077 220.396,326.077 232.375,326.077 231.985,340.077 	"/>
	<polygon fill="#FFFFFF" points="231.146,360.077 220.235,360.077 222.295,346.077 231.275,346.077 	"/>
	<polygon fill="#FFFFFF" points="232.436,468.677 221.335,468.126 219.955,442.657 221.375,417.126 221.905,391.597 
		221.775,366.077 230.155,366.077 232.315,391.606 230.575,417.136 231.205,442.657 	"/>
	<polygon fill="#484748" points="231.945,86.076 220.075,86.076 220.075,80.076 231.825,80.076 	"/>
	<polygon fill="#484748" points="232.195,100.116 232.096,106.076 232.096,106.116 220.235,106.116 220.235,106.076 
		220.795,100.116 	"/>
	<polygon fill="#484748" points="231.896,126.076 221.025,126.076 220.226,120.076 231.625,120.076 	"/>
	<polygon fill="#484748" points="231.926,140.076 231.096,146.076 221.436,146.076 221.485,140.076 	"/>
	<polygon fill="#484748" points="232.235,160.076 230.405,166.076 220.535,166.076 222.245,160.076 	"/>
	<polygon fill="#484748" points="230.365,186.076 222.235,186.076 220.585,180.076 229.985,180.076 	"/>
	<polygon fill="#484748" points="231.766,200.076 230.455,206.076 221.465,206.076 221.085,200.076 	"/>
	<polygon fill="#484748" points="231.905,220.076 231.255,226.076 219.886,226.076 220.695,220.076 	"/>
	<polygon fill="#484748" points="231.965,246.076 221.525,246.076 220.625,240.076 231.056,240.076 	"/>
	<polygon fill="#484748" points="231.335,266.076 221.875,266.076 220.165,260.076 230.825,260.076 	"/>
	<polygon fill="#484748" points="230.405,280.076 230.115,286.077 222.005,286.077 222.365,280.076 	"/>
	<polygon fill="#484748" points="231.476,300.077 230.375,306.077 219.886,306.077 219.846,300.077 	"/>
	<polygon fill="#484748" points="232.415,320.077 232.375,326.077 220.396,326.077 222.306,320.077 	"/>
	<polygon fill="#484748" points="231.985,340.077 231.275,346.077 222.295,346.077 220.965,340.077 	"/>
	<polygon fill="#484748" points="231.146,360.077 230.155,366.077 221.775,366.077 220.235,360.077 	"/>
</g>
<g>
	<polygon fill="#FFFFFF" points="242.016,72.737 240.226,52.107 241.695,31.717 251.985,31.107 251.125,52.107 251.806,72.737 
		250.125,93.367 241.846,93.367 	"/>
	<polygon fill="#FFFFFF" points="241.715,113.367 241.585,99.367 252.075,99.367 250.535,113.367 250.545,113.407 241.705,113.407 	
		"/>
	<polygon fill="#FFFFFF" points="240.976,133.367 240.735,119.407 252.226,119.407 250.215,133.367 	"/>
	<polygon fill="#FFFFFF" points="241.045,313.367 239.926,299.367 251.136,299.367 250.686,313.367 	"/>
	<polygon fill="#FFFFFF" points="250.195,373.367 240.056,373.367 240.136,359.367 250.056,359.367 	"/>
	<polygon fill="#FFFFFF" points="251.585,455.947 250.016,481.017 241.306,481.427 240.806,455.947 241.936,430.417 
		240.266,404.887 241.715,379.367 251.275,379.367 249.896,404.896 251.255,430.427 	"/>
	<polygon fill="#FFFFFF" points="241.695,353.367 240.415,339.367 252.445,339.367 250.455,353.367 	"/>
	<polygon fill="#FFFFFF" points="252.335,333.367 242.165,333.367 240.365,319.367 250.025,319.367 	"/>
	<polygon fill="#FFFFFF" points="242.125,293.366 241.676,279.366 250.556,279.366 252.255,293.366 	"/>
	<polygon fill="#FFFFFF" points="242.255,273.366 240.016,259.367 251.455,259.367 252.396,273.366 	"/>
	<polygon fill="#FFFFFF" points="240.936,253.367 240.915,239.367 252.215,239.367 251.915,253.367 	"/>
	<polygon fill="#FFFFFF" points="241.136,233.367 240.575,219.367 252.165,219.367 252.275,233.367 	"/>
	<polygon fill="#FFFFFF" points="241.695,213.367 240.636,199.367 252.005,199.367 250.605,213.367 	"/>
	<polygon fill="#FFFFFF" points="241.605,193.367 240.426,179.367 250.426,179.367 251.875,193.367 	"/>
	<polygon fill="#FFFFFF" points="252.285,173.367 240.306,173.367 241.065,159.367 250.815,159.367 	"/>
	<polygon fill="#FFFFFF" points="252.465,153.367 240.886,153.367 242.415,139.367 251.516,139.367 	"/>
	<polygon fill="#484748" points="252.075,99.367 241.585,99.367 241.846,93.367 250.125,93.367 	"/>
	<polygon fill="#484748" points="252.235,119.367 252.226,119.407 240.735,119.407 240.735,119.367 241.705,113.407 
		250.545,113.407 	"/>
	<polygon fill="#484748" points="251.516,139.367 242.415,139.367 240.976,133.367 250.215,133.367 	"/>
	<polygon fill="#484748" points="252.465,153.367 250.815,159.367 241.065,159.367 240.886,153.367 	"/>
	<polygon fill="#484748" points="252.285,173.367 250.426,179.367 240.426,179.367 240.306,173.367 	"/>
	<polygon fill="#484748" points="252.005,199.367 240.636,199.367 241.605,193.367 251.875,193.367 	"/>
	<polygon fill="#484748" points="252.165,219.367 240.575,219.367 241.695,213.367 250.605,213.367 	"/>
	<polygon fill="#484748" points="252.275,233.367 252.215,239.367 240.915,239.367 241.136,233.367 	"/>
	<polygon fill="#484748" points="251.915,253.367 251.455,259.367 240.016,259.367 240.936,253.367 	"/>
	<polygon fill="#484748" points="252.396,273.366 250.556,279.366 241.676,279.366 242.255,273.366 	"/>
	<polygon fill="#484748" points="252.255,293.366 251.136,299.367 239.926,299.367 242.125,293.366 	"/>
	<polygon fill="#484748" points="250.686,313.367 250.025,319.367 240.365,319.367 241.045,313.367 	"/>
	<polygon fill="#484748" points="252.445,339.367 240.415,339.367 242.165,333.367 252.335,333.367 	"/>
	<polygon fill="#484748" points="250.455,353.367 250.056,359.367 240.136,359.367 241.695,353.367 	"/>
	<polygon fill="#484748" points="251.275,379.367 241.715,379.367 240.056,373.367 250.195,373.367 	"/>
</g>
<g>
	<polygon fill="#FFFFFF" points="261.405,279.926 260.386,265.926 270.865,265.926 269.926,279.926 	"/>
	<polygon fill="#FFFFFF" points="272.065,299.926 259.985,299.926 261.926,285.926 270.065,285.926 	"/>
	<polygon fill="#FFFFFF" points="260.686,319.926 259.965,305.926 271.926,305.926 271.365,319.926 	"/>
	<polygon fill="#FFFFFF" points="261.865,339.927 260.655,325.927 270.485,325.927 271.655,339.927 	"/>
	<polygon fill="#FFFFFF" points="270.605,359.927 261.516,359.927 262.155,345.927 270.025,345.927 	"/>
	<polygon fill="#FFFFFF" points="271.415,379.927 259.965,379.927 261.535,365.927 270.315,365.927 	"/>
	<polygon fill="#FFFFFF" points="270.155,399.927 260.005,399.927 261.485,385.927 271.396,385.927 	"/>
	<polygon fill="#FFFFFF" points="272.165,456.985 271.415,482.507 270.365,507.716 260.886,508.155 262.365,482.507 
		261.915,456.976 261.245,431.446 261.815,405.927 270.146,405.927 272.016,431.456 	"/>
	<polygon fill="#FFFFFF" points="270.875,259.926 261.266,259.926 261.585,245.926 272.205,245.926 	"/>
	<polygon fill="#FFFFFF" points="262.476,239.926 261.795,225.926 272.266,225.926 272.045,239.926 	"/>
	<polygon fill="#FFFFFF" points="271.436,219.926 260.386,219.926 261.926,205.926 271.965,205.926 	"/>
	<polygon fill="#FFFFFF" points="262.266,199.926 261.115,185.926 270.905,185.926 271.445,199.926 	"/>
	<polygon fill="#FFFFFF" points="271.195,179.926 261.315,179.926 262.525,165.926 271.525,165.926 	"/>
	<polygon fill="#FFFFFF" points="271.646,159.926 260.985,159.926 261.325,145.966 270.035,145.966 	"/>
	<polygon fill="#FFFFFF" points="260.136,139.966 260.125,139.926 262.245,125.926 269.936,125.926 272.195,139.926 
		272.186,139.966 	"/>
	<polygon fill="#FFFFFF" points="262.405,99.296 260.615,78.666 262.025,58.436 270.415,58.386 272.176,78.666 272.315,99.296 
		271.835,119.926 261.226,119.926 	"/>
	<polygon fill="#484748" points="271.835,119.926 269.936,125.926 262.245,125.926 261.226,119.926 	"/>
	<polygon fill="#484748" points="272.186,139.966 270.035,145.926 270.035,145.966 261.325,145.966 261.325,145.926 
		260.136,139.966 	"/>
	<polygon fill="#484748" points="271.646,159.926 271.525,165.926 262.525,165.926 260.985,159.926 	"/>
	<polygon fill="#484748" points="271.195,179.926 270.905,185.926 261.115,185.926 261.315,179.926 	"/>
	<polygon fill="#484748" points="271.965,205.926 261.926,205.926 262.266,199.926 271.445,199.926 	"/>
	<polygon fill="#484748" points="272.266,225.926 261.795,225.926 260.386,219.926 271.436,219.926 	"/>
	<polygon fill="#484748" points="272.205,245.926 261.585,245.926 262.476,239.926 272.045,239.926 	"/>
	<polygon fill="#484748" points="270.875,259.926 270.865,265.926 260.386,265.926 261.266,259.926 	"/>
	<polygon fill="#484748" points="270.065,285.926 261.926,285.926 261.405,279.926 269.926,279.926 	"/>
	<polygon fill="#484748" points="272.065,299.926 271.926,305.926 259.965,305.926 259.985,299.926 	"/>
	<polygon fill="#484748" points="271.365,319.926 270.485,325.927 260.655,325.927 260.686,319.926 	"/>
	<polygon fill="#484748" points="271.655,339.927 270.025,345.927 262.155,345.927 261.865,339.927 	"/>
	<polygon fill="#484748" points="270.605,359.927 270.315,365.927 261.535,365.927 261.516,359.927 	"/>
	<polygon fill="#484748" points="271.415,379.927 271.396,385.927 261.485,385.927 259.965,379.927 	"/>
	<polygon fill="#484748" points="270.155,399.927 270.146,405.927 261.815,405.927 260.005,399.927 	"/>
</g>
<g>
	<polygon fill="#FFFFFF" points="290.575,149.882 280.155,149.882 280.205,135.882 290.596,135.882 	"/>
	<polygon fill="#FFFFFF" points="290.335,189.882 280.585,189.882 281.035,175.882 290.415,175.882 	"/>
	<polygon fill="#FFFFFF" points="290.505,229.882 280.825,229.882 282.285,215.882 290.705,215.882 	"/>
	<polygon fill="#FFFFFF" points="282.495,289.882 279.995,275.882 291.136,275.882 290.825,289.882 	"/>
	<polygon fill="#FFFFFF" points="290.926,309.882 280.375,309.882 280.855,295.882 290.516,295.882 	"/>
	<polygon fill="#FFFFFF" points="290.195,329.882 280.346,329.882 281.205,315.882 291.075,315.882 	"/>
	<polygon fill="#FFFFFF" points="289.976,380.282 291.556,406.183 290.896,432.093 290.415,457.692 281.625,457.821 
		280.375,432.462 282.346,406.933 280.575,381.401 280.855,355.882 291.415,355.882 	"/>
	<polygon fill="#FFFFFF" points="282.485,349.882 281.875,335.882 291.556,335.882 292.255,349.882 	"/>
	<polygon fill="#FFFFFF" points="292.235,269.882 281.075,269.882 282.476,255.882 290.245,255.882 	"/>
	<polygon fill="#FFFFFF" points="291.695,249.882 280.285,249.882 281.306,235.882 292.436,235.882 	"/>
	<polygon fill="#FFFFFF" points="282.065,209.882 282.025,195.882 290.205,195.882 291.436,209.882 	"/>
	<polygon fill="#FFFFFF" points="291.005,169.882 281.255,169.882 281.565,155.882 291.186,155.882 	"/>
	<polygon fill="#FFFFFF" points="292.346,129.882 280.146,129.882 280.846,115.882 290.886,115.882 	"/>
	<polygon fill="#FFFFFF" points="282.525,109.882 280.735,95.922 290.896,95.922 292.295,109.882 	"/>
	<polygon fill="#FFFFFF" points="291.235,89.922 280.795,89.922 280.795,89.882 281.096,75.882 290.346,75.882 	"/>
	<polygon fill="#FFFFFF" points="282.125,28.622 280.745,7.772 291.136,8.022 292.096,29.122 290.825,50.252 290.806,69.882 
		282.125,69.882 282.426,49.252 	"/>
	<polygon fill="#484748" points="290.806,71.382 290.255,74.372 290.346,75.882 281.096,75.882 282.125,69.882 290.806,69.882 	"/>
	<polygon fill="#484748" points="290.745,94.372 290.896,95.922 280.735,95.922 280.726,95.882 280.795,89.922 291.235,89.922 
		291.325,91.382 	"/>
	<polygon fill="#484748" points="290.726,114.372 290.886,115.882 280.846,115.882 282.525,109.882 292.295,109.882 
		292.445,111.382 	"/>
	<polygon fill="#484748" points="292.505,131.382 290.596,134.372 290.596,135.882 280.205,135.882 280.146,129.882 
		292.346,129.882 	"/>
	<polygon fill="#484748" points="291.205,154.372 291.186,155.882 281.565,155.882 280.155,149.882 290.575,149.882 
		290.575,151.382 	"/>
	<polygon fill="#484748" points="291.005,169.882 290.985,171.382 290.426,174.372 290.415,175.882 281.035,175.882 
		281.255,169.882 	"/>
	<polygon fill="#484748" points="290.325,191.382 290.075,194.372 290.205,195.882 282.025,195.882 280.585,189.882 
		290.335,189.882 	"/>
	<polygon fill="#484748" points="291.565,211.382 290.726,214.372 290.705,215.882 282.285,215.882 282.065,209.882 
		291.436,209.882 	"/>
	<polygon fill="#484748" points="292.516,234.372 292.436,235.882 281.306,235.882 280.825,229.882 290.505,229.882 
		290.485,231.382 	"/>
	<polygon fill="#484748" points="291.615,251.382 290.035,254.372 290.245,255.882 282.476,255.882 280.285,249.882 
		291.695,249.882 	"/>
	<polygon fill="#484748" points="292.445,271.382 291.165,274.372 291.136,275.882 279.995,275.882 281.075,269.882 
		292.235,269.882 	"/>
	<polygon fill="#484748" points="290.795,291.382 290.476,294.372 290.516,295.882 280.855,295.882 282.495,289.882 
		290.825,289.882 	"/>
	<polygon fill="#484748" points="291.176,314.372 291.075,315.882 281.205,315.882 280.375,309.882 290.926,309.882 
		290.965,311.382 	"/>
	<polygon fill="#484748" points="291.556,335.882 281.875,335.882 280.346,329.882 290.195,329.882 290.096,331.382 
		291.476,334.372 	"/>
	<polygon fill="#484748" points="292.335,351.382 291.505,354.372 291.415,355.882 280.855,355.882 282.485,349.882 
		292.255,349.882 	"/>
</g>
<polygon fill="#FFFFFF" points="2.028,45.784 1.097,66.006 0.791,86.636 0.725,107.267 2.524,113.267 0.846,127.267 0.149,133.267 
	0.207,147.267 0.153,153.267 1.568,167.267 1.253,173.267 1.034,187.267 0.585,193.267 2.025,207.267 2.062,213.267 2.283,227.267 
	0.822,233.267 1.301,247.267 0.29,253.267 2.475,267.267 1.074,273.267 0,287.267 2.492,293.267 0.857,307.267 0.379,313.267 
	1.208,327.267 0.342,333.267 1.879,347.267 2.49,353.267 0.859,367.267 0.573,373.267 2.341,387.267 0.372,393.267 1.662,407.267 
	2.028,413.267 1.492,440.635 0.829,468.007 2.341,494.96 11.484,495.485 12.331,468.011 11.478,440.639 10.095,413.267 
	11.179,407.267 10.961,393.267 10.473,387.267 10.792,373.267 11.168,367.267 12.441,353.267 10.033,347.267 11.613,333.267 
	12.512,327.267 10.48,313.267 10.723,307.267 11.566,293.267 10.08,287.267 10.325,273.267 10.429,267.267 10.983,253.267 
	11.201,247.267 10.576,233.267 10.593,227.267 12.505,213.267 10.729,207.267 12.445,193.267 10.742,187.267 11.33,173.267 
	10.252,167.267 10.802,153.267 10.825,147.267 12.1,133.267 11.128,127.267 11.812,113.267 12.48,107.267 11.243,86.639 
	12.328,66.009 10.043,45.9 "/>
<polygon fill="#FFFFFF" points="321.965,45.784 321.033,66.006 320.728,86.636 320.661,107.267 322.461,113.267 320.782,127.267 
	320.086,133.267 320.144,147.267 320.09,153.267 321.505,167.267 321.189,173.267 320.971,187.267 320.521,193.267 321.962,207.267 
	321.999,213.267 322.22,227.267 320.759,233.267 321.237,247.267 320.227,253.267 322.411,267.267 321.011,273.267 319.937,287.267 
	322.429,293.267 320.794,307.267 320.315,313.267 321.145,327.267 320.278,333.267 321.815,347.267 322.427,353.267 
	320.796,367.267 320.51,373.267 322.277,387.267 320.309,393.267 321.599,407.267 321.965,413.267 321.429,440.635 320.766,468.007 
	322.277,494.96 331.421,495.485 332.268,468.011 331.414,440.639 330.031,413.267 331.115,407.267 330.897,393.267 330.409,387.267 
	330.729,373.267 331.104,367.267 332.378,353.267 329.97,347.267 331.55,333.267 332.448,327.267 330.417,313.267 330.659,307.267 
	331.503,293.267 330.017,287.267 330.262,273.267 330.365,267.267 330.92,253.267 331.138,247.267 330.513,233.267 330.529,227.267 
	332.441,213.267 330.665,207.267 332.382,193.267 330.679,187.267 331.267,173.267 330.188,167.267 330.738,153.267 
	330.762,147.267 332.036,133.267 331.064,127.267 331.749,113.267 332.417,107.267 331.18,86.639 332.265,66.009 329.979,45.9 "/>
<polygon fill="#FFFFFF" points="20.385,0 21.569,21.019 22.446,41.649 19.895,62.279 21.133,68.279 22.156,82.279 21.177,88.279 
	21.986,102.279 21.056,108.279 20.042,122.279 21.924,128.279 21.607,142.279 20.672,148.279 21.737,162.279 22.242,168.279 
	22.259,182.279 22.525,188.279 21.475,202.279 21.167,208.279 20.65,222.279 21.546,228.279 22.065,242.279 19.859,248.279 
	20.766,262.279 20.283,268.279 20.516,282.279 20.222,288.279 22.179,302.279 21.062,308.279 22.272,322.279 20.234,328.279 
	20.172,342.279 21.477,348.279 22.418,362.279 22.283,368.279 21.444,395.647 22.076,423.02 20.439,450.667 31.537,450.518 
	31.229,423.023 31.015,395.651 32.335,368.279 31.601,362.279 31.657,348.279 31.889,342.279 30.123,328.279 31.818,322.279 
	31.093,308.279 31.635,302.279 31.173,288.279 30.436,282.279 31.425,268.279 32.218,262.279 29.941,248.279 30.07,242.279 
	31.393,228.279 30.345,222.279 31.467,208.279 30.63,202.279 31.975,188.279 31.341,182.279 30.499,168.279 30.231,162.279 
	32.019,148.279 32.012,142.279 31.103,128.279 31.331,122.279 31.896,108.279 31.139,102.279 32.068,88.279 31.762,82.279 
	31.937,68.279 30.386,62.279 31.696,41.652 30.264,21.022 30.101,0.953 "/>
<polygon fill="#FFFFFF" points="300.48,87.464 301.665,108.483 302.542,129.113 299.99,149.743 301.229,155.743 302.252,169.743 
	301.272,175.743 302.082,189.743 301.151,195.743 300.138,209.743 302.02,215.743 301.703,229.743 300.768,235.743 301.833,249.743 
	302.338,255.743 302.354,269.743 302.621,275.743 301.57,289.743 301.263,295.743 300.746,309.743 301.642,315.743 302.161,329.743 
	299.955,335.743 300.861,349.743 300.379,355.743 300.611,369.743 300.317,375.743 302.274,389.743 301.158,395.743 
	302.368,409.743 300.33,415.743 300.268,429.743 301.572,435.743 302.514,449.743 302.379,455.743 301.54,483.111 302.172,510.483 
	300.535,538.131 311.633,537.981 311.324,510.487 311.11,483.115 312.431,455.743 311.696,449.743 311.753,435.743 311.984,429.743 
	310.219,415.743 311.914,409.743 311.188,395.743 311.73,389.743 311.269,375.743 310.531,369.743 311.521,355.743 312.313,349.743 
	310.037,335.743 310.166,329.743 311.488,315.743 310.44,309.743 311.562,295.743 310.726,289.743 312.07,275.743 311.437,269.743 
	310.595,255.743 310.327,249.743 312.114,235.743 312.107,229.743 311.198,215.743 311.427,209.743 311.991,195.743 
	311.234,189.743 312.164,175.743 311.857,169.743 312.032,155.743 310.481,149.743 311.792,129.116 310.359,108.486 310.196,88.417 
	"/>
<g>
	<polygon fill="#484748" points="172.226,76.799 161.335,76.799 160.535,70.799 172.065,70.799 	"/>
	<polygon fill="#FFFFFF" points="161.455,50.169 162.205,29.539 161.405,9.009 170.896,9.049 171.125,29.539 170.016,50.169 
		172.065,70.799 160.535,70.799 	"/>
	<polygon fill="#484748" points="171.605,90.839 170.165,96.799 170.165,96.839 162.205,96.839 162.215,96.799 162.525,90.839 	"/>
	<polygon fill="#FFFFFF" points="162.525,90.799 161.335,76.799 172.226,76.799 171.615,90.799 171.605,90.839 162.525,90.839 	"/>
	<polygon fill="#484748" points="170.815,116.799 162.436,116.799 159.985,110.799 170.136,110.799 	"/>
	<polygon fill="#FFFFFF" points="170.136,110.799 159.985,110.799 162.205,96.839 170.165,96.839 	"/>
	<polygon fill="#484748" points="172.155,136.799 160.295,136.799 161.875,130.799 170.346,130.799 	"/>
	<polygon fill="#FFFFFF" points="170.346,130.799 161.875,130.799 162.436,116.799 170.815,116.799 	"/>
	<polygon fill="#484748" points="171.525,156.799 161.505,156.799 161.795,150.799 170.985,150.799 	"/>
	<polygon fill="#FFFFFF" points="161.795,150.799 160.295,136.799 172.155,136.799 170.985,150.799 	"/>
	<polygon fill="#484748" points="172.386,170.799 171.625,176.799 161.285,176.799 162.195,170.799 	"/>
	<polygon fill="#484748" points="172.365,196.799 161.605,196.799 161.085,190.799 169.965,190.799 	"/>
	<polygon fill="#FFFFFF" points="169.965,190.799 161.085,190.799 161.285,176.799 171.625,176.799 	"/>
	<polygon fill="#484748" points="171.915,216.799 162.285,216.799 160.945,210.799 171.825,210.799 	"/>
	<polygon fill="#484748" points="172.205,236.799 160.215,236.799 160.065,230.799 169.995,230.799 	"/>
	<polygon fill="#484748" points="171.476,256.799 161.096,256.799 160.315,250.799 170.205,250.799 	"/>
	<polygon fill="#484748" points="171.755,276.8 161.176,276.8 161.525,270.799 171.726,270.799 	"/>
	<polygon fill="#FFFFFF" points="161.525,270.799 161.096,256.799 171.476,256.799 171.726,270.799 	"/>
	<polygon fill="#484748" points="172.365,290.8 172.235,296.8 160.365,296.8 161.565,290.8 	"/>
	<polygon fill="#484748" points="171.785,316.8 161.306,316.8 160.335,310.8 171.165,310.8 	"/>
	<polygon fill="#FFFFFF" points="171.165,310.8 160.335,310.8 160.365,296.8 172.235,296.8 	"/>
	<polygon fill="#484748" points="172.365,330.8 172.125,336.8 161.476,336.8 161.005,330.8 	"/>
	<polygon fill="#484748" points="171.436,356.8 161.035,356.8 161.035,350.8 171.405,350.8 	"/>
	<polygon fill="#FFFFFF" points="171.436,356.8 170.235,382.329 170.565,407.858 170.205,433.38 170.745,458.729 162.025,458.599 
		160.665,431.538 161.705,404.159 160.386,376.8 160.375,370.8 161.035,356.8 	"/>
	<polygon fill="#FFFFFF" points="171.405,350.8 161.035,350.8 161.476,336.8 172.125,336.8 	"/>
	<polygon fill="#FFFFFF" points="172.365,330.8 161.005,330.8 161.306,316.8 171.785,316.8 	"/>
	<polygon fill="#FFFFFF" points="161.565,290.8 161.176,276.8 171.755,276.8 172.365,290.8 	"/>
	<polygon fill="#FFFFFF" points="170.205,250.799 160.315,250.799 160.215,236.799 172.205,236.799 	"/>
	<polygon fill="#FFFFFF" points="169.995,230.799 160.065,230.799 162.285,216.799 171.915,216.799 	"/>
	<polygon fill="#FFFFFF" points="171.825,210.799 160.945,210.799 161.605,196.799 172.365,196.799 	"/>
	<polygon fill="#FFFFFF" points="162.195,170.799 161.505,156.799 171.525,156.799 172.386,170.799 	"/>
</g>
<g>
	<polygon fill="#FFFFFF" points="70.545,151.791 70.797,131.164 70.673,110.534 71.605,89.696 60.697,89.663 60.512,110.531 
		62.09,131.161 60.154,151.791 	"/>
	<polygon fill="#FFFFFF" points="72.165,171.791 70.375,157.791 60.261,157.791 62.34,171.791 	"/>
	<polygon fill="#FFFFFF" points="70.431,211.791 72.181,197.791 62.347,197.791 61.022,211.791 	"/>
	<polygon fill="#FFFFFF" points="69.891,271.791 70.685,257.791 60.401,257.791 61.756,271.791 	"/>
	<polygon fill="#FFFFFF" points="71.811,291.791 71.113,277.791 60.98,277.791 60.202,291.791 	"/>
	<polygon fill="#FFFFFF" points="71.862,391.791 70.399,377.791 61.165,377.791 60.228,391.791 	"/>
	<polygon fill="#FFFFFF" points="70.323,411.791 72.113,397.791 60.772,397.791 61.822,411.791 	"/>
	<path fill="#FFFFFF" d="M70.468,431.791l-0.018-14c-0.128,0.043-7.937,0-7.937,0l-1.052,14H70.468z"/>
	<polygon fill="#FFFFFF" points="70.443,451.791 69.948,437.791 61.587,437.791 60.083,451.791 	"/>
	<polygon fill="#FFFFFF" points="62.225,457.791 59.958,485.159 60.727,512.531 61.674,539.728 70.606,539.689 72.244,512.535 
		72.354,485.163 71.381,457.791 	"/>
	<polygon fill="#FFFFFF" points="70.545,371.791 70.093,357.791 61.929,357.791 60.051,371.791 	"/>
	<polygon fill="#FFFFFF" points="70.27,351.791 70.7,337.791 60.4,337.791 61.44,351.791 	"/>
	<polygon fill="#FFFFFF" points="72.14,331.791 71.148,317.791 62.289,317.791 60.852,331.791 	"/>
	<polygon fill="#FFFFFF" points="71.143,311.791 70.072,297.791 60.185,297.791 61.177,311.791 	"/>
	<polygon fill="#FFFFFF" points="71.169,251.791 71.463,237.791 61.136,237.791 61.018,251.791 	"/>
	<polygon fill="#FFFFFF" points="71.506,231.791 70.351,217.791 61.695,217.791 62.018,231.791 	"/>
	<polygon fill="#FFFFFF" points="72.496,191.791 70.642,177.791 62.183,177.791 61.926,191.791 	"/>
	<polygon fill="#484748" points="60.154,151.791 60.261,157.791 70.375,157.791 70.545,151.791 	"/>
	<polygon fill="#484748" points="62.34,171.791 72.165,171.791 70.642,177.791 62.181,177.875 	"/>
	<path fill="#FFFFFF" d="M61.926,191.791"/>
	<polygon fill="#484748" points="61.926,191.791 72.496,191.791 72.181,197.791 62.347,197.791 	"/>
	<polygon fill="#484748" points="61.022,211.791 70.431,211.791 70.351,217.791 61.695,217.791 	"/>
	<polygon fill="#484748" points="62.018,231.791 71.506,231.791 71.463,237.791 61.136,237.791 	"/>
	<polygon fill="#484748" points="61.018,251.791 71.169,251.791 70.685,257.791 60.401,257.791 	"/>
	<polygon fill="#484748" points="61.756,271.791 69.891,271.791 71.113,277.791 60.98,277.791 	"/>
	<polygon fill="#484748" points="60.202,291.791 71.811,291.791 70.072,297.791 60.185,297.791 	"/>
	<polygon fill="#484748" points="61.177,311.791 71.143,311.791 71.148,317.791 62.289,317.791 	"/>
	<polygon fill="#484748" points="60.852,331.791 72.14,331.791 70.7,337.791 60.4,337.791 	"/>
	<path fill="#FFFFFF" d="M61.44,351.791"/>
	<polygon fill="#484748" points="70.27,351.791 70.093,357.791 61.929,357.791 61.44,351.791 	"/>
	<polygon fill="#484748" points="60.051,371.791 70.545,371.791 70.399,377.791 61.165,377.791 	"/>
	<polygon fill="#484748" points="60.228,391.791 71.862,391.791 72.113,397.791 60.772,397.791 	"/>
	<polygon fill="#484748" points="61.822,411.791 70.323,411.791 70.45,417.791 62.514,417.791 	"/>
	<polygon fill="#484748" points="61.462,431.791 61.587,437.791 69.948,437.791 70.468,431.791 	"/>
	<polygon fill="#484748" points="60.083,451.791 70.443,451.791 71.381,457.791 62.225,457.791 	"/>
</g>
<g>
	<polygon fill="#FFFFFF" points="110.386,71.643 111.696,51.015 110.264,30.385 110.101,10.316 100.385,9.363 101.569,30.382 
		102.446,51.012 99.895,71.643 	"/>
	<polygon fill="#484748" points="111.335,131.647 111.105,137.647 101.926,137.647 100.045,131.647 	"/>
	<polygon fill="#FFFFFF" points="111.335,131.647 100.045,131.647 101.056,117.647 111.896,117.647 	"/>
	<polygon fill="#484748" points="112.016,151.647 112.016,157.647 100.676,157.647 101.605,151.647 	"/>
	<polygon fill="#FFFFFF" points="100.676,157.647 112.016,157.647 110.235,171.647 101.735,171.647 	"/>
	<polygon fill="#FFFFFF" points="112.016,151.647 101.605,151.647 101.926,137.647 111.105,137.647 	"/>
	<polygon fill="#484748" points="111.976,197.647 102.525,197.647 102.255,191.647 111.346,191.647 	"/>
	<polygon fill="#FFFFFF" points="102.255,191.647 102.245,177.647 110.495,177.647 111.346,191.647 	"/>
	<polygon fill="#484748" points="111.465,217.647 101.165,217.647 101.476,211.647 110.625,211.647 	"/>
	<polygon fill="#FFFFFF" points="110.625,211.647 101.476,211.647 102.525,197.647 111.976,197.647 	"/>
	<polygon fill="#484748" points="111.396,237.647 101.545,237.647 100.655,231.647 110.346,231.647 	"/>
	<polygon fill="#FFFFFF" points="110.346,231.647 100.655,231.647 101.165,217.647 111.465,217.647 	"/>
	<polygon fill="#484748" points="110.075,251.647 109.945,257.647 99.855,257.647 102.065,251.647 	"/>
	<polygon fill="#FFFFFF" points="102.065,251.647 101.545,237.647 111.396,237.647 110.075,251.647 	"/>
	<polygon fill="#484748" points="112.215,271.647 111.426,277.647 100.285,277.647 100.766,271.647 	"/>
	<polygon fill="#FFFFFF" points="100.766,271.647 99.855,257.647 109.945,257.647 112.215,271.647 	"/>
	<polygon fill="#484748" points="111.176,297.647 100.226,297.647 100.516,291.647 110.436,291.647 	"/>
	<polygon fill="#FFFFFF" points="100.516,291.647 100.285,277.647 111.426,277.647 110.436,291.647 	"/>
	<polygon fill="#484748" points="111.636,311.647 111.096,317.647 101.065,317.647 102.176,311.647 	"/>
	<polygon fill="#FFFFFF" points="102.176,311.647 100.226,297.647 111.176,297.647 111.636,311.647 	"/>
	<polygon fill="#484748" points="111.815,331.647 110.125,337.647 100.235,337.647 102.275,331.647 	"/>
	<polygon fill="#FFFFFF" points="102.275,331.647 101.065,317.647 111.096,317.647 111.815,331.647 	"/>
	<polygon fill="#484748" points="111.886,351.647 111.655,357.647 101.476,357.647 100.176,351.647 	"/>
	<polygon fill="#FFFFFF" points="111.886,351.647 100.176,351.647 100.235,337.647 110.125,337.647 	"/>
	<polygon fill="#484748" points="112.335,377.647 102.285,377.647 102.415,371.647 111.605,371.647 	"/>
	<polygon fill="#FFFFFF" points="102.415,371.647 101.476,357.647 111.655,357.647 111.605,371.647 	"/>
	<polygon fill="#FFFFFF" points="111.226,432.387 111.535,459.877 100.436,460.027 102.075,432.387 101.445,405.007 
		102.285,377.647 112.335,377.647 111.016,405.018 	"/>
	<polygon fill="#FFFFFF" points="111.139,111.643 112.068,97.643 101.177,97.643 101.986,111.643 	"/>
	<polygon fill="#FFFFFF" points="111.762,91.643 111.937,77.643 101.133,77.643 102.156,91.643 	"/>
	<polygon fill="#484748" points="99.895,71.643 110.386,71.643 111.937,77.643 101.133,77.643 	"/>
	<polygon fill="#484748" points="102.156,91.643 111.762,91.643 112.068,97.643 101.177,97.643 	"/>
	<polygon fill="#484748" points="101.986,111.643 111.139,111.643 111.896,117.643 101.056,117.643 	"/>
	<polygon fill="#484748" points="110.495,177.647 102.245,177.647 101.735,171.647 110.235,171.647 	"/>
</g>
<g>
	<polygon fill="#FFFFFF" points="130.018,99.979 131.121,79.351 130.862,58.721 131.533,37.929 121.41,38.196 122.205,58.718 
		121.46,79.348 120.531,99.979 	"/>
	<polygon fill="#FFFFFF" points="130.815,159.983 121.875,159.983 122.436,145.983 130.136,145.983 	"/>
	<polygon fill="#FFFFFF" points="130.985,185.983 131.525,199.983 122.195,199.983 121.505,185.983 	"/>
	<polygon fill="#FFFFFF" points="121.795,179.983 120.295,165.983 130.346,165.983 132.155,179.983 	"/>
	<polygon fill="#FFFFFF" points="121.525,299.983 121.096,285.983 130.205,285.983 131.476,299.983 	"/>
	<polygon fill="#FFFFFF" points="121.565,319.983 121.176,305.983 131.726,305.983 131.755,319.983 	"/>
	<polygon fill="#FFFFFF" points="131.785,359.983 121.005,359.983 121.306,345.983 131.165,345.983 	"/>
	<polygon fill="#FFFFFF" points="130.205,460.723 130.745,487.923 122.025,487.783 120.665,460.723 121.705,433.343 
		120.386,405.983 130.235,405.983 130.565,433.354 	"/>
	<polygon fill="#FFFFFF" points="131.436,399.983 120.375,399.983 121.035,385.983 131.405,385.983 	"/>
	<polygon fill="#FFFFFF" points="132.365,365.983 132.125,379.983 121.035,379.983 121.476,365.983 	"/>
	<polygon fill="#FFFFFF" points="132.235,339.983 120.335,339.983 120.365,325.983 132.365,325.983 	"/>
	<polygon fill="#FFFFFF" points="132.205,279.983 120.315,279.983 120.215,265.983 129.995,265.983 	"/>
	<polygon fill="#FFFFFF" points="131.915,259.983 120.065,259.983 122.285,245.983 131.825,245.983 	"/>
	<polygon fill="#FFFFFF" points="132.365,239.983 120.945,239.983 121.605,225.983 129.965,225.983 	"/>
	<polygon fill="#FFFFFF" points="131.625,219.983 121.085,219.983 121.285,205.983 132.386,205.983 	"/>
	<polygon fill="#FFFFFF" points="130.169,139.979 131.612,125.979 122.213,125.979 119.98,139.979 	"/>
	<polygon fill="#FFFFFF" points="132.224,119.979 132.066,105.979 121.34,105.979 122.525,119.979 	"/>
	<polygon fill="#484748" points="130.815,159.983 130.346,165.983 120.295,165.983 121.875,159.983 	"/>
	<polygon fill="#484748" points="132.155,179.983 130.985,185.983 121.505,185.983 121.795,179.983 	"/>
	<polygon fill="#484748" points="131.625,219.983 129.965,225.983 121.605,225.983 121.085,219.983 	"/>
	<polygon fill="#484748" points="132.365,239.983 131.825,245.983 122.285,245.983 120.945,239.983 	"/>
	<polygon fill="#484748" points="131.915,259.983 129.995,265.983 120.215,265.983 120.065,259.983 	"/>
	<polygon fill="#484748" points="132.205,279.983 130.205,285.983 121.096,285.983 120.315,279.983 	"/>
	<polygon fill="#484748" points="131.726,305.983 121.176,305.983 121.525,299.983 131.476,299.983 	"/>
	<polygon fill="#484748" points="132.365,325.983 120.365,325.983 121.565,319.983 131.755,319.983 	"/>
	<polygon fill="#484748" points="132.235,339.983 131.165,345.983 121.306,345.983 120.335,339.983 	"/>
	<polygon fill="#484748" points="132.365,365.983 121.476,365.983 121.005,359.983 131.785,359.983 	"/>
	<polygon fill="#484748" points="132.125,379.983 131.405,385.983 121.035,385.983 121.035,379.983 	"/>
	<polygon fill="#484748" points="131.436,399.983 130.235,405.983 120.386,405.983 120.375,399.983 	"/>
	<polygon fill="#484748" points="120.531,99.979 130.018,99.979 132.066,105.979 121.34,105.979 	"/>
	<polygon fill="#484748" points="122.525,119.979 132.224,119.979 131.612,125.979 122.213,125.979 	"/>
	<polygon fill="#484748" points="119.98,139.979 130.169,139.979 130.135,145.979 122.437,145.979 	"/>
	<polygon fill="#484748" points="132.386,205.983 121.285,205.983 122.195,199.983 131.525,199.983 	"/>
</g>
<g>
	<polygon fill="#FFFFFF" points="92.48,126.9 91.243,106.273 92.328,85.643 90.043,65.534 82.028,65.417 81.097,85.64 
		80.791,106.27 80.725,126.9 	"/>
	<polygon fill="#484748" points="91.325,192.905 81.255,192.905 81.565,186.905 90.255,186.905 	"/>
	<polygon fill="#FFFFFF" points="81.565,186.905 80.155,172.905 90.806,172.905 90.255,186.905 	"/>
	<polygon fill="#484748" points="92.445,212.905 80.585,212.905 81.035,206.905 90.745,206.905 	"/>
	<polygon fill="#FFFFFF" points="90.745,206.905 81.035,206.905 81.255,192.905 91.325,192.905 	"/>
	<polygon fill="#FFFFFF" points="92.445,212.905 90.726,226.905 82.025,226.905 80.585,212.905 	"/>
	<polygon fill="#484748" points="90.596,246.905 90.575,252.905 80.825,252.905 82.285,246.905 	"/>
	<polygon fill="#FFFFFF" points="82.285,246.905 82.065,232.905 92.505,232.905 90.596,246.905 	"/>
	<polygon fill="#484748" points="91.205,266.905 90.985,272.905 80.285,272.905 81.306,266.905 	"/>
	<polygon fill="#FFFFFF" points="81.306,266.905 80.825,252.905 90.575,252.905 91.205,266.905 	"/>
	<polygon fill="#484748" points="90.426,286.905 90.325,292.905 81.075,292.905 82.476,286.905 	"/>
	<polygon fill="#FFFFFF" points="82.476,286.905 80.285,272.905 90.985,272.905 90.426,286.905 	"/>
	<polygon fill="#484748" points="91.565,312.905 82.495,312.905 79.995,306.905 90.075,306.905 	"/>
	<polygon fill="#FFFFFF" points="90.075,306.905 79.995,306.905 81.075,292.905 90.325,292.905 	"/>
	<polygon fill="#484748" points="90.726,326.905 90.485,332.905 80.375,332.905 80.855,326.905 	"/>
	<polygon fill="#484748" points="92.516,346.905 91.615,352.905 80.346,352.905 81.205,346.905 	"/>
	<polygon fill="#484748" points="92.445,372.905 82.485,372.905 81.875,366.905 90.035,366.905 	"/>
	<polygon fill="#FFFFFF" points="81.875,366.905 80.346,352.905 91.615,352.905 90.035,366.905 	"/>
	<polygon fill="#484748" points="91.165,386.905 90.795,392.905 80.575,392.905 80.855,386.905 	"/>
	<polygon fill="#484748" points="90.965,412.905 80.375,412.905 82.346,406.905 90.476,406.905 	"/>
	<polygon fill="#FFFFFF" points="82.346,406.905 80.575,392.905 90.795,392.905 90.476,406.905 	"/>
	<polygon fill="#484748" points="91.176,426.905 90.096,432.905 82.025,432.905 81.665,426.905 	"/>
	<polygon fill="#FFFFFF" points="81.665,426.905 80.375,412.905 90.965,412.905 91.176,426.905 	"/>
	<polygon fill="#FFFFFF" points="92.335,487.645 91.485,515.115 82.346,514.595 80.825,487.645 81.495,460.265 82.025,432.905 
		90.096,432.905 91.476,460.275 	"/>
	<polygon fill="#FFFFFF" points="91.165,386.905 80.855,386.905 82.485,372.905 92.445,372.905 	"/>
	<polygon fill="#FFFFFF" points="81.205,346.905 80.375,332.905 90.485,332.905 92.516,346.905 	"/>
	<polygon fill="#FFFFFF" points="90.726,326.905 80.855,326.905 82.495,312.905 91.565,312.905 	"/>
	<polygon fill="#FFFFFF" points="90.825,166.9 92.1,152.9 80.149,152.9 80.207,166.9 	"/>
	<polygon fill="#FFFFFF" points="91.128,146.9 91.812,132.9 82.524,132.9 80.846,146.9 	"/>
	<polygon fill="#484748" points="80.725,126.9 92.48,126.9 91.812,132.9 82.524,132.9 	"/>
	<polygon fill="#484748" points="80.846,146.9 91.128,146.9 92.1,152.9 80.149,152.9 	"/>
	<polygon fill="#484748" points="92.505,232.905 82.065,232.905 82.025,226.905 90.726,226.905 	"/>
	<polygon fill="#484748" points="80.207,166.9 90.825,166.9 90.806,172.905 80.155,172.905 	"/>
</g>
<g>
	<polygon fill="#FFFFFF" points="152.418,125.329 151.181,104.702 152.266,84.072 149.98,63.963 141.966,63.846 141.034,84.069 
		140.729,104.699 140.662,125.329 	"/>
	<polygon fill="#484748" points="151.263,191.333 141.192,191.333 141.503,185.333 150.192,185.333 	"/>
	<polygon fill="#FFFFFF" points="141.503,185.333 140.093,171.333 150.743,171.333 150.192,185.333 	"/>
	<polygon fill="#484748" points="152.383,211.333 140.522,211.333 140.973,205.333 150.683,205.333 	"/>
	<polygon fill="#FFFFFF" points="150.683,205.333 140.973,205.333 141.192,191.333 151.263,191.333 	"/>
	<polygon fill="#FFFFFF" points="152.383,211.333 150.663,225.333 141.963,225.333 140.522,211.333 	"/>
	<polygon fill="#484748" points="150.533,245.333 150.513,251.333 140.763,251.333 142.223,245.333 	"/>
	<polygon fill="#FFFFFF" points="142.223,245.333 142.003,231.333 152.442,231.333 150.533,245.333 	"/>
	<polygon fill="#484748" points="151.143,265.333 150.923,271.333 140.223,271.333 141.243,265.333 	"/>
	<polygon fill="#FFFFFF" points="141.243,265.333 140.763,251.333 150.513,251.333 151.143,265.333 	"/>
	<polygon fill="#484748" points="150.363,285.333 150.263,291.333 141.013,291.333 142.413,285.333 	"/>
	<polygon fill="#FFFFFF" points="142.413,285.333 140.223,271.333 150.923,271.333 150.363,285.333 	"/>
	<polygon fill="#484748" points="151.503,311.333 142.433,311.333 139.933,305.333 150.013,305.333 	"/>
	<polygon fill="#FFFFFF" points="150.013,305.333 139.933,305.333 141.013,291.333 150.263,291.333 	"/>
	<polygon fill="#484748" points="150.663,325.333 150.423,331.334 140.312,331.334 140.793,325.333 	"/>
	<polygon fill="#484748" points="152.453,345.334 151.553,351.334 140.283,351.334 141.143,345.334 	"/>
	<polygon fill="#484748" points="152.383,371.334 142.423,371.334 141.812,365.334 149.973,365.334 	"/>
	<polygon fill="#FFFFFF" points="141.812,365.334 140.283,351.334 151.553,351.334 149.973,365.334 	"/>
	<polygon fill="#484748" points="151.103,385.334 150.732,391.334 140.513,391.334 140.793,385.334 	"/>
	<polygon fill="#484748" points="150.902,411.334 140.312,411.334 142.283,405.334 150.413,405.334 	"/>
	<polygon fill="#FFFFFF" points="142.283,405.334 140.513,391.334 150.732,391.334 150.413,405.334 	"/>
	<polygon fill="#484748" points="151.113,425.334 150.033,431.334 141.963,431.334 141.603,425.334 	"/>
	<polygon fill="#FFFFFF" points="141.603,425.334 140.312,411.334 150.902,411.334 151.113,425.334 	"/>
	<polygon fill="#FFFFFF" points="152.272,486.073 151.423,513.544 142.283,513.023 140.763,486.073 141.433,458.693 
		141.963,431.334 150.033,431.334 151.413,458.704 	"/>
	<polygon fill="#FFFFFF" points="151.103,385.334 140.793,385.334 142.423,371.334 152.383,371.334 	"/>
	<polygon fill="#FFFFFF" points="141.143,345.334 140.312,331.334 150.423,331.334 152.453,345.334 	"/>
	<polygon fill="#FFFFFF" points="150.663,325.333 140.793,325.333 142.433,311.333 151.503,311.333 	"/>
	<polygon fill="#FFFFFF" points="150.763,165.329 152.037,151.329 140.087,151.329 140.145,165.329 	"/>
	<polygon fill="#FFFFFF" points="151.065,145.329 151.75,131.329 142.462,131.329 140.783,145.329 	"/>
	<polygon fill="#484748" points="140.662,125.329 152.418,125.329 151.75,131.329 142.462,131.329 	"/>
	<polygon fill="#484748" points="140.783,145.329 151.065,145.329 152.037,151.329 140.087,151.329 	"/>
	<polygon fill="#484748" points="152.442,231.333 142.003,231.333 141.963,225.333 150.663,225.333 	"/>
	<polygon fill="#484748" points="140.145,165.329 150.763,165.329 150.743,171.333 140.093,171.333 	"/>
</g>
</svg>
