<?xml version="1.0" encoding="utf-8"?>
<!-- Generator: Adobe Illustrator 16.0.1, SVG Export Plug-In . SVG Version: 6.00 Build 0)  -->
<!DOCTYPE svg PUBLIC "-//W3C//DTD SVG 1.1//EN" "http://www.w3.org/Graphics/SVG/1.1/DTD/svg11.dtd">
<svg version="1.1" id="Layer_1" xmlns="http://www.w3.org/2000/svg" xmlns:xlink="http://www.w3.org/1999/xlink" x="0px" y="0px"
	 width="72.036px" height="54.136px" viewBox="0 0 72.036 54.136" enable-background="new 0 0 72.036 54.136" xml:space="preserve">
<path fill="#FFFFFF" d="M72.036,13.522C72.036,6.054,65.981,0,58.514,0H13.522C6.054,0,0,6.054,0,13.522v12.171
	c0,7.469,6.054,13.522,13.522,13.522h25.61l12.653,14.921l-0.041-14.921h6.769c7.468,0,13.522-6.053,13.522-13.522V13.522
	 M66.628,25.693c0,4.482-3.634,8.114-8.114,8.114H13.522c-4.479,0-8.113-3.632-8.113-8.114V13.522c0-4.481,3.633-8.113,8.113-8.113
	h44.991c4.48,0,8.114,3.632,8.114,8.113V25.693z"/>
<path fill="#FFFFFF" d="M11.983,11.453h48.071c1.592,0,2.885,1.292,2.885,2.884s-1.293,2.884-2.885,2.884H11.983
	c-1.594,0-2.885-1.292-2.885-2.884S10.389,11.453,11.983,11.453z"/>
<path fill="#FFFFFF" d="M11.983,21.3h48.071c1.592,0,2.885,1.292,2.885,2.883c0,1.594-1.293,2.884-2.885,2.884H11.983
	c-1.594,0-2.885-1.291-2.885-2.884C9.098,22.591,10.389,21.3,11.983,21.3z"/>
</svg>
