<?xml version="1.0" encoding="utf-8"?>
<!-- Generator: Adobe Illustrator 16.0.1, SVG Export Plug-In . SVG Version: 6.00 Build 0)  -->
<!DOCTYPE svg PUBLIC "-//W3C//DTD SVG 1.1//EN" "http://www.w3.org/Graphics/SVG/1.1/DTD/svg11.dtd">
<svg version="1.1" id="Layer_1" xmlns="http://www.w3.org/2000/svg" xmlns:xlink="http://www.w3.org/1999/xlink" x="0px" y="0px"
	 width="35.985px" height="16.013px" viewBox="0 0 35.985 16.013" enable-background="new 0 0 35.985 16.013" xml:space="preserve">
<path fill="#FFFFFF" d="M35.717,11.243C32.314,4.658,26.069,0.36,19.42,0.027C11.046-0.405,3.464,4.336,0.283,11.815
	c-0.357,0.804-0.642,2.591,0.879,3.634c0.611,0.375,1.23,0.564,1.84,0.564c1.552,0,2.368-1.186,2.456-1.321l0.102-0.196
	c2.269-5.664,7.644-9.229,13.583-8.934c5.556,0.279,9.808,4.613,11.73,8.18c0.26,0.555,1.049,1.492,2.365,1.492
	c0.408,0,0.831-0.092,1.322-0.302c1.467-0.731,1.656-2.359,1.213-3.562L35.717,11.243z"/>
</svg>
