<?xml version="1.0" encoding="utf-8"?>
<!-- Generator: Adobe Illustrator 16.0.1, SVG Export Plug-In . SVG Version: 6.00 Build 0)  -->
<!DOCTYPE svg PUBLIC "-//W3C//DTD SVG 1.1//EN" "http://www.w3.org/Graphics/SVG/1.1/DTD/svg11.dtd">
<svg version="1.1" id="Layer_1" xmlns="http://www.w3.org/2000/svg" xmlns:xlink="http://www.w3.org/1999/xlink" x="0px" y="0px"
	 width="182.95px" height="315.12px" viewBox="0 0 182.95 315.12" enable-background="new 0 0 182.95 315.12" xml:space="preserve">
<g>
	<g id="XMLID_2_">
		<g>
			<path fill="#FFFFFF" d="M85.556,292.766c-0.696,0-1.327-0.822-1.327-1.774v-10.319c0-1.014,0.634-1.771,1.327-1.771h11.845
				c0.691,0,1.26,0.758,1.26,1.771v10.319c0,0.952-0.568,1.774-1.26,1.774H85.556z"/>
			<path fill="#FFFFFF" d="M17.475,256.164h145.15V20.195H17.475V256.164z M171.424,315.12H11.464C5.127,315.12,0,308.665,0,300.675
				V14.435C0,6.457,5.127,0,11.464,0h159.96c6.402,0,11.525,6.457,11.525,14.435v286.247
				C182.954,308.665,177.827,315.12,171.424,315.12z M80.365,298.778h22.163c1.391,0,2.469-1.453,2.469-3.217v-19.455
				c0-1.836-1.078-3.289-2.469-3.289H80.365c-1.332,0-2.477,1.453-2.477,3.289v19.445C77.888,297.325,79.033,298.778,80.365,298.778
				z"/>
		</g>
	</g>
</g>
</svg>
