<?xml version="1.0" encoding="utf-8"?>
<!-- Generator: Adobe Illustrator 16.0.1, SVG Export Plug-In . SVG Version: 6.00 Build 0)  -->
<!DOCTYPE svg PUBLIC "-//W3C//DTD SVG 1.1//EN" "http://www.w3.org/Graphics/SVG/1.1/DTD/svg11.dtd">
<svg version="1.1" id="Layer_1" xmlns="http://www.w3.org/2000/svg" xmlns:xlink="http://www.w3.org/1999/xlink" x="0px" y="0px"
	 width="145.056px" height="113.92px" viewBox="0 0 145.056 113.92" enable-background="new 0 0 145.056 113.92"
	 xml:space="preserve">
<g id="Your_Icon_5_">
	<path fill="#FFFFFF" d="M131.084,35.302c0,1.695-2.437,3.068-4.963,3.068c-2.525,0-4.186-1.374-4.186-3.068
		c0-1.694,2.439-0.506,4.963-0.506C129.426,34.796,131.084,33.607,131.084,35.302z"/>
	<path fill="#FFFFFF" d="M131.98,6.308L127.249,0c0,0,2.364,5.913-0.395,7.491c-2.76,1.577-6.699-1.971-16.161,7.49
		c-9.46,9.459,0,46.908,0,28.381c0-1.572,0.185-3.036,0.501-4.415c2.762,4.667,7.59,7.579,13.445,7.579
		c7.105,0,13.562-4.194,16.623-9.967c1.572-2.125,3.115-5.742,3.725-12.338C146.168,11.383,131.98,6.308,131.98,6.308z
		 M121.135,25.771c6.49-4.259,13.605-5.666,13.605-5.666c1.062,0.826,1.766,2.188,2.236,3.684l-6.555,0.821L121.135,25.771z
		 M124.641,41.988c-5.43,0-9.629-3.597-10.965-8.95c0.292-0.457,0.604-0.895,0.928-1.32c0.994,1.202,2.479,1.887,4.225,1.669
		c2.716-0.34,5.082-2.717,5.102-5.399l3.627-0.454c0.574,2.604,2.656,4.43,5.369,4.091c2.176-0.271,4.127-1.85,4.829-3.846
		c0.212,2.098,0.136,3.756,0.136,3.756s-0.243,1.171-0.489,2.631C135.166,38.626,130.086,41.988,124.641,41.988z"/>
	<path fill="#FFFFFF" d="M137.104,66.619c0,0,0.787-18.527-11.332-18.182c-12.121,0.344-13.109,19.756-13.109,19.756v45.728h26.017
		L137.104,66.619z M125.578,85.73c-2.011,0-3.642-1.632-3.642-3.645c0-2.012,1.631-3.643,3.642-3.643
		c2.013,0,3.642,1.631,3.642,3.643C129.219,84.098,127.59,85.73,125.578,85.73z"/>
</g>
<g id="Your_Icon_4_">
	<path fill="#FFFFFF" d="M29.825,44c-2.722-2.833-6.09-4.203-10.118-4.085c-9.331,0.294-14.204,8.947-16.751,18.108
		c-0.026,0.029-0.059,0.045-0.082,0.076c-0.242,0.342-0.316,0.751-0.244,1.133C0.146,68.953,0.157,78.86,0.166,79.664v31.9
		c0,0.928,0.752,2.354,1.679,2.354h13.016c0.786,0,1.466-0.88,1.639-1.649l1.501-6.841l0.647,6.727
		c0.084,0.855,0.809,1.766,1.673,1.766h15.114c0.929,0,1.68-1.427,1.68-2.355V75.79C37.221,74.263,38.514,53.05,29.825,44z
		 M7.289,55.412c1.444,0.758,4.749,2.123,9.902,2.123c0.5,0,1.023-0.013,1.562-0.038c7.288-0.379,11.542-3.92,12.411-4.716
		c0.332,0.902,0.627,1.835,0.881,2.79c-1.376,1.149-5.983,4.495-13.463,4.882c-6.191,0.319-10.306-1.072-12.277-1.979
		C6.602,57.434,6.93,56.411,7.289,55.412z M10.075,49.585c1.228,0.818,3.984,2.252,8.27,2.252c0.423,0,0.859-0.014,1.309-0.044
		c4.411-0.288,7.481-2.335,9.123-3.768c0.557,0.802,1.05,1.688,1.494,2.622c-0.219,0.045-0.433,0.131-0.604,0.302
		c-0.039,0.038-3.896,3.817-11.036,4.187c-5.943,0.312-9.435-1.358-10.466-1.941C8.728,51.908,9.366,50.697,10.075,49.585z
		 M16.767,63.479c0.635,0,1.291-0.019,1.97-0.052c6.889-0.357,11.63-2.961,14.036-4.665c0.179,0.944,0.333,1.89,0.46,2.825
		c-0.083,0.057-0.173,0.09-0.246,0.164c-0.053,0.049-5.161,4.988-14.411,5.468c-7.701,0.399-12.306-1.771-13.682-2.538
		c0.194-1.084,0.412-2.183,0.663-3.28C7.756,62.34,11.491,63.479,16.767,63.479z M33.812,68.496
		c-1.462,1.24-6.69,5.121-15.259,5.566c-7.865,0.408-12.763-1.643-14.579-2.59c0.11-1.131,0.246-2.331,0.421-3.582
		c2.133,1.012,6.238,2.463,12.302,2.463c0.655,0,1.337-0.018,2.038-0.055c7.492-0.39,12.525-3.34,14.885-5.087
		C33.711,66.361,33.774,67.464,33.812,68.496z M16.506,77.476c0.716,0,1.456-0.021,2.22-0.061
		c7.147-0.369,12.251-2.885,15.137-4.785c-0.013,0.953-0.039,1.711-0.062,2.227c-1.854,1.299-8.2,5.246-17.071,5.356l-0.939,0.008
		c-7.146,0-10.811-1.062-12.254-1.625c0.017-0.796,0.057-2.016,0.15-3.536C6.143,76.135,10.419,77.476,16.506,77.476z
		 M19.812,43.271c3.028-0.092,5.513,0.899,7.576,3.041c-1.356,1.202-4.007,3.038-7.875,3.291c-4.401,0.302-7.094-1.091-8.167-1.802
		C13.511,45.131,16.277,43.383,19.812,43.271z"/>
	<path fill="#FFFFFF" d="M24.825,24.459c0,1.804-2.597,3.268-5.287,3.268c-2.692,0-4.46-1.463-4.46-3.268s2.599-0.54,5.288-0.54
		C23.059,23.919,24.825,22.655,24.825,24.459z"/>
	<path fill="#FFFFFF" d="M39.022,13.939l-1.682-2.523l-1.768,0.222C33.365,5.089,27.776,0.775,20.674,0.775
		c-9.11,0-17.174,6.8-18.45,15.031L1.01,15.958L0,18.818l2.049-0.257c0.221,9.757,6.836,16.79,15.911,16.79
		c9.931,0,18.644-8.079,18.644-17.289c0-1.312-0.12-2.573-0.341-3.779L39.022,13.939z M20.674,3.487
		c5.655,0,10.157,3.348,12.131,8.497l-1.209,0.15c0,0,0,0,0-0.001L21.15,13.44l0,0L5.033,15.455
		C6.463,8.835,13.152,3.487,20.674,3.487z M33.893,18.063c0,7.765-7.443,14.577-15.931,14.577c-7.609,0-13.142-6.054-13.213-14.416
		l1.304-0.164c0.611,2.776,2.829,4.719,5.72,4.357c2.893-0.362,5.413-2.893,5.434-5.751l3.862-0.483
		c0.613,2.773,2.828,4.719,5.719,4.357c2.893-0.361,5.414-2.894,5.435-5.753l1.333-0.165C33.769,15.717,33.893,16.864,33.893,18.063
		z"/>
</g>
</svg>
