<?xml version="1.0" encoding="utf-8"?>
<!-- Generator: Adobe Illustrator 16.0.1, SVG Export Plug-In . SVG Version: 6.00 Build 0)  -->
<!DOCTYPE svg PUBLIC "-//W3C//DTD SVG 1.1//EN" "http://www.w3.org/Graphics/SVG/1.1/DTD/svg11.dtd">
<svg version="1.1" id="Layer_1" xmlns="http://www.w3.org/2000/svg" xmlns:xlink="http://www.w3.org/1999/xlink" x="0px" y="0px"
	 width="52.356px" height="90.18px" viewBox="0 0 52.356 90.18" enable-background="new 0 0 52.356 90.18" xml:space="preserve">
<g>
	<g id="XMLID_2_">
		<g>
			<path fill="#FFFFFF" d="M24.484,83.783c-0.199,0-0.38-0.235-0.38-0.508v-2.953c0-0.29,0.182-0.507,0.38-0.507h3.39
				c0.197,0,0.36,0.217,0.36,0.507v2.953c0,0.272-0.163,0.508-0.36,0.508H24.484z"/>
			<path fill="#FFFFFF" d="M5.001,73.308H46.54V5.78H5.001V73.308z M49.058,90.18H3.281C1.467,90.18,0,88.333,0,86.046V4.131
				C0,1.848,1.467,0,3.281,0h45.777c1.832,0,3.299,1.848,3.299,4.131v81.917C52.356,88.333,50.89,90.18,49.058,90.18z
				 M22.999,85.503h6.342c0.398,0,0.707-0.416,0.707-0.921v-5.567c0-0.525-0.309-0.941-0.707-0.941h-6.342
				c-0.381,0-0.709,0.416-0.709,0.941v5.564C22.29,85.087,22.617,85.503,22.999,85.503z"/>
		</g>
	</g>
</g>
<g>
	<path fill="#FFFFFF" d="M9.995,46.38L6.227,33.227H9.03l2.25,9.278l1.902-9.278h2.885l1.902,9.278l2.25-9.278h2.777L19.237,46.38
		h-2.581l-2.036-10.073L12.576,46.38H9.995z"/>
	<path fill="#FFFFFF" d="M23.956,46.38V33.227h9.555v2.286h-6.884v2.804h6.294v2.25h-6.294v3.384h7.207v2.429H23.956z"/>
	<path fill="#FFFFFF" d="M35.108,46.38V33.227h6.198c1.346,0,2.372,0.285,3.075,0.853c0.707,0.569,1.06,1.395,1.06,2.478
		c0,0.667-0.132,1.223-0.394,1.669c-0.262,0.447-0.654,0.792-1.178,1.037c0.679,0.273,1.186,0.668,1.521,1.183
		c0.337,0.515,0.506,1.157,0.506,1.925c0,1.28-0.418,2.268-1.252,2.965c-0.832,0.696-2.014,1.044-3.544,1.044H35.108z
		 M37.698,38.317h3.091c0.666,0,1.154-0.115,1.464-0.344c0.31-0.229,0.465-0.591,0.465-1.085c0-0.482-0.15-0.832-0.451-1.05
		c-0.301-0.217-0.799-0.326-1.496-0.326h-3.072V38.317z M37.698,44.005h3.206c0.757,0,1.308-0.137,1.653-0.411
		c0.344-0.274,0.517-0.706,0.517-1.294c0-0.613-0.169-1.055-0.509-1.327c-0.338-0.271-0.898-0.406-1.679-0.406h-3.188V44.005z"/>
</g>
</svg>
