<?xml version="1.0" encoding="utf-8"?>
<!-- Generator: Adobe Illustrator 16.0.1, SVG Export Plug-In . SVG Version: 6.00 Build 0)  -->
<!DOCTYPE svg PUBLIC "-//W3C//DTD SVG 1.1//EN" "http://www.w3.org/Graphics/SVG/1.1/DTD/svg11.dtd">
<svg version="1.1" id="Layer_1" xmlns="http://www.w3.org/2000/svg" xmlns:xlink="http://www.w3.org/1999/xlink" x="0px" y="0px"
	 width="72.036px" height="54.136px" viewBox="0 0 72.036 54.136" enable-background="new 0 0 72.036 54.136" xml:space="preserve">
<path fill="#FFFFFF" d="M0,13.522v12.171c0,7.47,6.054,13.522,13.522,13.522h6.769l-0.042,14.92l12.654-14.92h25.61
	c7.468,0,13.522-6.053,13.522-13.522V13.522C72.036,6.055,65.981,0,58.514,0H13.522C6.054,0,0,6.055,0,13.522 M5.409,13.522
	c0-4.479,3.633-8.112,8.114-8.112h44.991c4.479,0,8.113,3.633,8.113,8.112v12.171c0,4.481-3.634,8.114-8.113,8.114H13.522
	c-4.481,0-8.114-3.633-8.114-8.114V13.522z"/>
<g>
	<path fill="#FFFFFF" d="M17.384,25.57V14.765h-3.902v-2.349h10.484v2.349H20.09V25.57H17.384z"/>
	<path fill="#FFFFFF" d="M25.317,25.57V12.416h9.555v2.286h-6.884v2.804h6.294v2.25h-6.294v3.384h7.207v2.429H25.317z"/>
	<path fill="#FFFFFF" d="M36.072,25.57l4.135-6.715l-4.135-6.438h3.126l2.688,4.599l2.67-4.599h3.143l-4.135,6.42l4.135,6.733
		h-3.125l-2.688-4.554l-2.688,4.554H36.072z"/>
	<path fill="#FFFFFF" d="M52.22,25.57V14.765h-3.902v-2.349h10.484v2.349h-3.876V25.57H52.22z"/>
</g>
</svg>
