<?xml version="1.0" encoding="utf-8"?>
<!-- Generator: Adobe Illustrator 16.0.1, SVG Export Plug-In . SVG Version: 6.00 Build 0)  -->
<!DOCTYPE svg PUBLIC "-//W3C//DTD SVG 1.1//EN" "http://www.w3.org/Graphics/SVG/1.1/DTD/svg11.dtd">
<svg version="1.1" id="Layer_1" xmlns="http://www.w3.org/2000/svg" xmlns:xlink="http://www.w3.org/1999/xlink" x="0px" y="0px"
	 width="36.101px" height="36.101px" viewBox="0 0 36.101 36.101" enable-background="new 0 0 36.101 36.101" xml:space="preserve">
<g>
	<path fill="#FFFFFF" d="M2.567,15.621h30.965c1.34,0,2.432,1.089,2.432,2.43c0,1.343-1.092,2.429-2.432,2.429H2.567
		c-1.344,0-2.432-1.086-2.432-2.429C0.136,16.707,1.224,15.621,2.567,15.621z"/>
	<path fill="#FFFFFF" d="M15.618,33.532V2.569c0-1.34,1.089-2.431,2.431-2.431c1.344,0,2.433,1.091,2.433,2.431v30.963
		c0,1.344-1.089,2.432-2.433,2.432C16.706,35.964,15.618,34.876,15.618,33.532z"/>
</g>
</svg>
